<?xml version="1.0" encoding="UTF-8" standalone="no"?>
<svg width="400" height="400" version="1.1" xmlns:xlink="http://www.w3.org/1999/xlink" xmlns="http://www.w3.org/2000/svg"><defs></defs>
<rect width="100%" height="100%" fill="#fff" stroke-width="0px"/>
<text font-size="12px" font-family="sans-serif" font-weight="normal" text-anchor="middle" fill="black" x="32" y="200" transform="rotate(270,32,200)">percent covered</text>
<path d="M65 232h315M65 210.5h315M65 189h315M65 167.5h315M65 146h315M65 124.5h315M65 103h315M65 81.5h315M65 60h315M65 38.5h315M65 17h315" stroke="#666"/>
<path d="M65 235v-3M89.231 235v-3M113.46 235v-3M137.69 235v-3M161.92 235v-3M186.15 235v-3M210.38 235v-3M234.62 235v-3M258.85 235v-3M283.08 235v-3M307.31 235v-3M331.54 235v-3M355.77 235v-3M380 235v-3M62 232h3M62 210.5h3M62 189h3M62 167.5h3M62 146h3M62 124.5h3M62 103h3M62 81.5h3M62 60h3M62 38.5h3M62 17h3" stroke-width="1px" stroke="#333"/>
<g stroke-width="2px" stroke="#333"><path d="M63 232h319"/>
<path d="M65 15v219"/>
</g>
<g font-size="10px" font-family="Georgia" fill="#333"><g text-anchor="end"><text x="60" y="235">0</text>
<text x="60" y="213.5">10</text>
<text x="60" y="192">20</text>
<text x="60" y="170.5">30</text>
<text x="60" y="149">40</text>
<text x="60" y="127.5">50</text>
<text x="60" y="106">60</text>
<text x="60" y="84.5">70</text>
<text x="60" y="63">80</text>
<text x="60" y="41.5">90</text>
<text x="60" y="20">100</text>
</g>
<g text-anchor="end"><text y="244" x="80.115" transform="rotate(-90,77.115,241)">Prekindergarten</text>
<text y="244" x="104.35" transform="rotate(-90,101.35,241)">Kindergarten</text>
<text y="244" x="128.58" transform="rotate(-90,125.58,241)">Grade 1</text>
<text y="244" x="152.81" transform="rotate(-90,149.81,241)">Grade 2</text>
<text y="244" x="177.04" transform="rotate(-90,174.04,241)">Grade 3</text>
<text y="244" x="201.27" transform="rotate(-90,198.27,241)">Grade 4</text>
<text y="244" x="225.5" transform="rotate(-90,222.5,241)">Grade 5</text>
<text y="244" x="249.73" transform="rotate(-90,246.73,241)">Grade 6</text>
<text y="244" x="273.96" transform="rotate(-90,270.96,241)">Grade 7</text>
<text y="244" x="298.19" transform="rotate(-90,295.19,241)">Grade 8</text>
<text y="244" x="322.42" transform="rotate(-90,319.42,241)">Algebra</text>
<text y="244" x="346.65" transform="rotate(-90,343.65,241)">Geometry</text>
<text y="244" x="370.88" transform="rotate(-90,367.88,241)">Algebra 2 and Trigonometry</text>
</g>
</g>
</svg>
