<?xml version="1.0" encoding="UTF-8" standalone="no"?>
<svg width="400" height="400" version="1.1" xmlns:xlink="http://www.w3.org/1999/xlink" xmlns="http://www.w3.org/2000/svg"><defs></defs>
<rect width="100%" height="100%" fill="#fff" stroke-width="0px"/>
<text font-size="12px" font-family="sans-serif" font-weight="normal" text-anchor="middle" fill="black" x="32" y="200" transform="rotate(270,32,200)">percent covered</text>
<path d="M65 334h315M65 302.3h315M65 270.6h315M65 238.9h315M65 207.2h315M65 175.5h315M65 143.8h315M65 112.1h315M65 80.4h315M65 48.7h315M65 17h315" stroke="#666"/>
<path d="M65 337v-3M170 337v-3M275 337v-3M380 337v-3M62 334h3M62 302.3h3M62 270.6h3M62 238.9h3M62 207.2h3M62 175.5h3M62 143.8h3M62 112.1h3M62 80.4h3M62 48.7h3M62 17h3" stroke-width="1px" stroke="#333"/>
<g stroke-width="2px" stroke="#333"><path d="M63 334h319"/>
<path d="M65 15v321"/>
</g>
<g font-size="10px" font-family="Georgia" fill="#333"><g text-anchor="end"><text x="60" y="337">0</text>
<text x="60" y="305.3">10</text>
<text x="60" y="273.6">20</text>
<text x="60" y="241.9">30</text>
<text x="60" y="210.2">40</text>
<text x="60" y="178.5">50</text>
<text x="60" y="146.8">60</text>
<text x="60" y="115.1">70</text>
<text x="60" y="83.4">80</text>
<text x="60" y="51.7">90</text>
<text x="60" y="20">100</text>
</g>
<g text-anchor="end"><text y="346" x="120.5" transform="rotate(-90,117.5,343)">Grade 5</text>
<text y="346" x="225.5" transform="rotate(-90,222.5,343)">Grade 6</text>
<text y="346" x="330.5" transform="rotate(-90,327.5,343)">Grade Six</text>
</g>
</g>
</svg>
