<?xml version="1.0" encoding="UTF-8" standalone="no"?>
<svg width="400" height="400" version="1.1" xmlns:xlink="http://www.w3.org/1999/xlink" xmlns="http://www.w3.org/2000/svg"><defs></defs>
<rect width="100%" height="100%" fill="#fff" stroke-width="0px"/>
<text font-size="12px" font-family="sans-serif" font-weight="normal" text-anchor="middle" fill="black" x="32" y="200" transform="rotate(270,32,200)">percent covered</text>
<path d="M65 112h315M65 102.5h315M65 93h315M65 83.5h315M65 74h315M65 64.5h315M65 55h315M65 45.5h315M65 36h315M65 26.5h315M65 17h315" stroke="#666"/>
<path d="M65 115v-3M222.5 115v-3M380 115v-3M62 112h3M62 102.5h3M62 93h3M62 83.5h3M62 74h3M62 64.5h3M62 55h3M62 45.5h3M62 36h3M62 26.5h3M62 17h3" stroke-width="1px" stroke="#333"/>
<g stroke-width="2px" stroke="#333"><path d="M63 112h319"/>
<path d="M65 15v99"/>
</g>
<g font-size="10px" font-family="Georgia" fill="#333"><g text-anchor="end"><text x="60" y="115">0</text>
<text x="60" y="105.5">10</text>
<text x="60" y="96">20</text>
<text x="60" y="86.5">30</text>
<text x="60" y="77">40</text>
<text x="60" y="67.5">50</text>
<text x="60" y="58">60</text>
<text x="60" y="48.5">70</text>
<text x="60" y="39">80</text>
<text x="60" y="29.5">90</text>
<text x="60" y="20">100</text>
</g>
<g text-anchor="end"><text y="124" x="146.75" transform="rotate(-90,143.75,121)">College- and Career-Readiness Anchor Standards</text>
<text y="124" x="304.25" transform="rotate(-90,301.25,121)">Kindergarten</text>
</g>
</g>
</svg>
