<?xml version="1.0" encoding="UTF-8" standalone="no"?>
<svg width="400" height="400" version="1.1" xmlns:xlink="http://www.w3.org/1999/xlink" xmlns="http://www.w3.org/2000/svg"><defs></defs>
<rect width="100%" height="100%" fill="#fff" stroke-width="0px"/>
<text font-size="12px" font-family="sans-serif" font-weight="normal" text-anchor="middle" fill="black" x="32" y="200" transform="rotate(270,32,200)">percent covered</text>
<path d="M65 310h315M65 280.7h315M65 251.4h315M65 222.1h315M65 192.8h315M65 163.5h315M65 134.2h315M65 104.9h315M65 75.6h315M65 46.3h315M65 17h315" stroke="#666"/>
<path d="M65 313v-3M96.5 313v-3M128 313v-3M159.5 313v-3M191 313v-3M222.5 313v-3M254 313v-3M285.5 313v-3M317 313v-3M348.5 313v-3M380 313v-3M62 310h3M62 280.7h3M62 251.4h3M62 222.1h3M62 192.8h3M62 163.5h3M62 134.2h3M62 104.9h3M62 75.6h3M62 46.3h3M62 17h3" stroke-width="1px" stroke="#333"/>
<g stroke-width="2px" stroke="#333"><path d="M63 310h319"/>
<path d="M65 15v297"/>
</g>
<g font-size="10px" font-family="Georgia" fill="#333"><g text-anchor="end"><text x="60" y="313">0</text>
<text x="60" y="283.7">10</text>
<text x="60" y="254.4">20</text>
<text x="60" y="225.1">30</text>
<text x="60" y="195.8">40</text>
<text x="60" y="166.5">50</text>
<text x="60" y="137.2">60</text>
<text x="60" y="107.9">70</text>
<text x="60" y="78.6">80</text>
<text x="60" y="49.3">90</text>
<text x="60" y="20">100</text>
</g>
<g text-anchor="end"><text y="322" x="83.75" transform="rotate(-90,80.75,319)">Third Grade</text>
<text y="322" x="115.25" transform="rotate(-90,112.25,319)">Fourth Grade</text>
<text y="322" x="146.75" transform="rotate(-90,143.75,319)">Kindergarten</text>
<text y="322" x="178.25" transform="rotate(-90,175.25,319)">First Grade</text>
<text y="322" x="209.75" transform="rotate(-90,206.75,319)">Second Grade</text>
<text y="322" x="241.25" transform="rotate(-90,238.25,319)">Fifth Grade</text>
<text y="322" x="272.75" transform="rotate(-90,269.75,319)">Sixth Grade</text>
<text y="322" x="304.25" transform="rotate(-90,301.25,319)">Seventh Grade</text>
<text y="322" x="335.75" transform="rotate(-90,332.75,319)">Eighth Grade</text>
<text y="322" x="367.25" transform="rotate(-90,364.25,319)">Grades: 9-10</text>
</g>
</g>
</svg>
