<?xml version="1.0" standalone="no"?>
<!DOCTYPE svg PUBLIC "-//W3C//DTD SVG 1.1//EN" "http://www.w3.org/Graphics/SVG/1.1/DTD/svg11.dtd" >
<svg xmlns="http://www.w3.org/2000/svg">
<metadata>
This is a custom SVG font generated by IcoMoon.
<iconset grid="16"></iconset>
</metadata>
<defs>
<font id="Synergy_itc_v2_02" horiz-adv-x="512" >
<font-face units-per-em="512" ascent="480" descent="-32" />
<missing-glyph horiz-adv-x="512" />
<glyph unicode="&#xe01b;" d="M 488.256,90.592c-14.944,23.328-65.184,37.856-114.88,58.528S 311.872,177.024, 311.872,177.024
		l-0.448,47.68c0.00,0.00, 18.624,14.336, 24.384,59.20c 11.616-3.36, 23.872,17.376, 24.576,28.32c 0.672,10.528-1.632,39.744-15.808,36.80
		c 2.88,22.016, 4.992,41.792, 3.936,52.256C 344.80,439.584, 307.136,480.00, 249.152,480.00C 191.136,480.00, 153.408,439.584, 149.696,401.28
		C 148.64,390.816, 150.784,371.04, 153.632,349.024c-14.176,2.944-16.416-26.272-15.808-36.80c 0.704-10.944, 12.896-31.68, 24.576-28.32
		c 5.76-44.864, 24.448-59.20, 24.448-59.20l-0.512-47.68c0.00,0.00-11.808-7.232-61.504-27.904c-49.696-20.672-99.936-35.264-114.88-58.528
		c-13.44-20.832-9.376-121.248-9.376-121.248L 188.16-30.656 l 17.984,32.00l 72.064,0.00 l 18.048-32.00l 201.312,0.00 C 497.632-30.656, 501.696,69.76, 488.256,90.592 M 254.656,33.344
		L 224.192,33.344 l 18.016,32.00l 20.256-35.904L 254.656,33.344z M 242.208,65.344l-32.00,32.00l 32.00,32.00l 32.00-32.00L 242.208,65.344z" data-tags="synergy-admin" />
<glyph unicode="&#xe01c;" d="M 160.032,128.00L 128.032,160.00L 96.032,128.00L 160.032,64.00L 256.032,160.00L 224.032,192.00 zM 160.032,288.00L 128.032,320.00L 96.032,288.00L 160.032,224.00L 256.032,320.00L 224.032,352.00 zM 384.032,425.376l 41.376-41.408l-41.376,0.00 L 384.032,425.376 z M 64.032,448.00l 288.00,0.00 l0.00-96.032 l 96.032,0.00 L 448.064,0.00 L 64.032,0.00 L 64.032,448.00 z M 32.032,480.00l0.00-512.00 l 448.00,0.00 L 480.032,374.624 L 374.656,480.00
	L 32.032,480.00 zM 288.032,288.00L 384.032,288.00L 384.032,256.00L 288.032,256.00zM 288.032,128.032L 384.032,128.032L 384.032,96.00L 288.032,96.00z" data-tags="synergy-diag-mastery" />
<glyph unicode="&#xe01e;" d="M 288.00,426.752l 96.00-46.144l0.00-131.456 c 10.304,2.656, 20.864,4.544, 32.00,4.544L 416.00,400.768 L 272.00,470.016
		l-128.00-61.568L0.00,477.696l0.00-387.52 l 144.00-69.248l 128.00,61.568L 288.00,74.752L 288.00,426.752 z M 128.00,64.128l-96.00,46.176L 32.00,426.752 l 96.00-46.144L 128.00,64.128 z M 256.00,110.304l-96.00-46.176L 160.00,380.672 
		l 96.00,46.144L 256.00,110.304 zM 416.00,221.696c-52.992,0.00-96.00-42.944-96.00-96.00c0.00-36.448, 20.512-67.68, 50.368-84.00L 416.00-34.304
		l 45.632,76.00C 491.488,57.984, 512.00,89.248, 512.00,125.696C 512.00,178.752, 469.056,221.696, 416.00,221.696 M 416.00,93.696c-17.696,0.00-32.00,14.304-32.00,32.00s 14.304,32.00, 32.00,32.00
		s 32.00-14.304, 32.00-32.00S 433.696,93.696, 416.00,93.696" data-tags="synergy-district" />
<glyph unicode="&#xe01a;" d="M 131.968,95.968l 64.032,0.00 l0.00-64.00 L 131.968,31.968 L 131.968,95.968 z M 228.00,95.968l 64.00,0.00 l0.00-96.00 l-64.00,0.00 L 228.00,95.968 z M 324.00,95.968l 64.00,0.00 l0.00-64.00 l-64.00,0.00 L 324.00,95.968 z M 131.968,192.00
	l 64.032,0.00 l0.00-64.00 L 131.968,128.00 L 131.968,192.00 z M 228.00,192.00l 64.00,0.00 l0.00-64.00 l-64.00,0.00 L 228.00,192.00 z M 324.00,192.00l 64.00,0.00 l0.00-64.00 l-64.00,0.00 L 324.00,192.00 z M 131.968,288.00l 64.032,0.00 l0.00-64.032 L 131.968,223.968 L 131.968,288.00 z M 228.00,288.00l 64.00,0.00 l0.00-64.032 l-64.00,0.00 L 228.00,288.00 z M 324.00,288.00l 64.00,0.00 l0.00-64.032 
	l-64.00,0.00 L 324.00,288.00 z M 131.968,351.968l 64.032,0.00 l0.00-32.00 L 131.968,319.968 L 131.968,351.968 z M 228.00,351.968l 64.00,0.00 l0.00-32.00 l-64.00,0.00 L 228.00,351.968 z M 324.00,351.968l 64.00,0.00 l0.00-32.00 l-64.00,0.00 L 324.00,351.968 z M 260.00,480.00L 68.032,383.968l-32.00,0.00 l0.00-32.00 l 32.00,0.00 L 68.032,0.00 
	L 4.00,0.00 l0.00-32.00 L 512.00-32.00 l0.00,32.00 l-60.032,0.00 L 451.968,351.968 l 32.032,0.00 l0.00,32.00 l-32.032,0.00 L 260.00,480.00z" data-tags="synergy-school" />
<glyph unicode="&#xe014;" d="M 64.00,125.696L 192.00,125.696 l0.00-32.00 L 64.00,93.696 L 64.00,125.696 z M 64.00,189.696L 192.00,189.696 l0.00-32.00 L 64.00,157.696 L 64.00,189.696 z M 256.00,253.696l 64.00,0.00 l0.00-128.00 L 256.00,125.696 L 256.00,253.696 z M 352.00,253.696l 64.00,0.00 l0.00-128.00 l-64.00,0.00 L 352.00,253.696 z M 384.00,413.696
	l0.00-57.632 L 192.00,413.696L 192.00,336.00 L0.00,253.696l0.00-32.00 l 32.00,0.00 l0.00-159.968 L0.00,61.728 l0.00-32.00 l 512.032,0.00 l0.00,32.00 l-32.00,0.00 L 480.032,285.696 l 32.00,0.00 L 512.032,317.664 l-64.00,19.232l0.00,76.80 L 384.00,413.696 z" data-tags="synergy-home-purchase" />
<glyph unicode="&#xe011;" d="M 480.00,345.60c0.00,31.808-21.504,57.60-48.00,57.60S 384.00,377.408, 384.00,345.60S 405.504,288.00, 432.00,288.00
		S 480.00,313.792, 480.00,345.60M 128.00,345.60c0.00,31.808-21.504,57.60-48.00,57.60S 32.00,377.408, 32.00,345.60S 53.504,288.00, 80.00,288.00S 128.00,313.792, 128.00,345.60M 128.00,227.20C 128.00,249.024, 132.576,269.44, 140.128,288.00L 64.00,288.00 C 28.80,288.00,0.00,259.20,0.00,224.00l0.00-64.00 l 143.168,0.00 
		C 133.824,180.16, 128.00,202.816, 128.00,227.20M 448.00,288.00l-81.44,0.00 c 7.552-18.528, 12.128-39.008, 12.128-60.80c0.00-24.416-5.824-47.04-15.136-67.20
		L 512.00,160.00 L 512.00,224.00 C 512.00,259.20, 483.20,288.00, 448.00,288.00M 341.76,125.248C 334.752,126.944, 327.488,128.00, 320.00,128.00L 295.808,128.00 
		c 30.048,18.592, 50.88,55.776, 50.88,99.20c0.00,61.824-41.824,112.00-93.344,112.00C 201.824,339.20, 160.00,289.024, 160.00,227.20c0.00-43.424, 20.80-80.608, 50.912-99.20L 192.00,128.00 
		c-8.928,0.00-17.504-1.664-25.76-4.00C 125.92,112.64, 96.00,75.808, 96.00,32.00l0.00-64.00 l 320.00,0.00 l0.00,64.00 C 416.00,77.28, 384.128,115.328, 341.76,125.248" data-tags="synergy-class" />
<glyph unicode="&#xe00f;" d="M 352.00,288.00L 256.00,252.00L 256.00,188.00L 352.00,224.00 zM 128.00,45.248L 128.00,329.376 l 32.032-32.00l0.00-284.128 L 128.00,45.248z M 192.032,297.824l 9.28,3.456L 384.00,369.824l0.00-283.648 l-191.968-72.00L 192.032,297.824 z M 352.00,480.00
	L 112.48,390.176L 96.00,383.968L 96.00,32.00 l 64.032-64.00L 416.00,63.968L 416.00,416.00 l-32.864-12.352L 176.448,326.176L 137.312,365.312L 352.00,445.28L 352.00,480.00 z" data-tags="synergy-subject" />
<glyph unicode="&#xe024;" d="M 32.00,384.00l0.00-181.024 l 226.272-226.208l 181.024,180.992L 213.056,384.00L 32.00,384.00 z M 128.00,248.00
		C 105.984,248.00, 88.00,265.952, 88.00,288.00S 105.984,328.00, 128.00,328.00S 168.00,310.048, 168.00,288.00S 150.048,248.00, 128.00,248.00M 245.056,448.00L 64.00,448.00L 64.00,416.00L 204.384,416.00L 217.632,416.00L 448.00,191.968L 471.328,221.728 z" data-tags="synergy-tags" />
<glyph unicode="&#xe025;" d="M 213.056,416.00L 32.00,416.00 l0.00-181.024 l 226.272-226.208l 181.024,180.992L 213.056,416.00z M 128.00,280.00
		C 105.984,280.00, 88.00,297.952, 88.00,320.00S 105.984,360.00, 128.00,360.00S 168.00,342.048, 168.00,320.00S 150.048,280.00, 128.00,280.00" data-tags="synergy-tag" />
<glyph unicode="&#xe028;" d="M 407.008,429.376l 26.752,0.00 L 433.76,480.00 L 64.00,480.00 l0.00-50.56 l 32.00,0.00 c 4.00-96.544, 39.296-159.712, 100.736-180.192l0.00-53.664 
		C 136.00,175.36, 100.80,113.312, 96.192,18.56L 64.00,18.56 L 64.00-32.00 l 369.76,0.00 l0.00,50.56 l-26.88,0.00 c-4.672,94.752-39.872,156.80-100.576,176.992L 306.304,249.248 
		C 367.68,269.728, 403.008,332.896, 407.008,429.376 M 290.56,173.824c 67.936-16.992, 87.68-89.632, 91.008-155.264l-25.376,0.00 l-45.184,52.928l-57.344,67.20
		l-57.376-67.20L 151.008,18.56L 121.504,18.56 C 124.80,84.192, 144.512,156.80, 212.448,173.824l 9.536,2.368L 221.984,268.64 L 212.448,271.008
		C 143.424,288.32, 124.192,362.944, 121.312,429.376l 260.384,0.00 c-2.88-66.496-22.016-141.12-91.136-158.432L 280.992,268.64l0.00-92.448 L 290.56,173.824zM 308.32,325.12L 203.072,325.12L 229.376,294.304L 255.68,263.552L 281.984,294.304 z" data-tags="synergy-wait" />
<glyph unicode="&#xe029;" d="M 448.672,224.00c0.00,12.256-1.312,24.192-3.488,35.84l 67.488,59.84l-84.992,95.744L 378.88,372.096
		c-17.12,14.144-36.80,25.152-58.176,32.704L 320.704,480.00 l-128.00,0.00 l0.00-75.20 C 171.328,397.248, 151.616,386.24, 134.496,372.096L 85.664,415.424L 0.672,319.68l 67.456-59.84
		C 65.952,248.192, 64.672,236.256, 64.672,224.00c0.00-12.288, 1.28-24.256, 3.456-35.872l-67.456-59.872l 84.992-95.68l 48.832,43.328
		c 17.12-14.08, 36.832-25.184, 58.176-32.704L 192.672-32.00 l 128.00,0.00 l0.00,75.136 c 21.344,7.552, 41.056,18.624, 58.144,32.736l 48.80-43.328l 84.96,95.648l-67.456,59.872
		C 447.36,199.744, 448.672,211.712, 448.672,224.00 M 256.672,128.00c-52.928,0.00-96.00,43.072-96.00,96.00c0.00,52.928, 43.072,96.00, 96.00,96.00c 52.896,0.00, 96.00-43.072, 96.00-96.00
		C 352.672,171.072, 309.632,128.00, 256.672,128.00" data-tags="synergy-settings" />
<glyph unicode="&#xe02a;" d="M 489.824,33.952c-6.144,6.24-78.432,78.88-78.432,78.88l-15.328,15.424
		c0.00,0.00, 5.888,24.992, 0.128,30.752c-5.76,5.824-9.632,9.696-9.632,9.696s-5.76,5.792-12.512-0.896c-6.752-6.72-24.128-24.00-24.128-24.00
		L 285.216,208.896l 34.976,34.816c 15.872-8.288, 33.632-13.344, 52.736-13.44c 64.00-0.224, 116.00,51.52, 116.192,115.52c0.00,5.60-3.328,10.752-8.512,12.896
		c-5.248,2.208-11.296,1.056-15.296-2.944L 424.00,314.624L 356.576,329.28l-14.208,67.488l 41.312,41.088c 4.064,4.032, 5.28,10.112, 3.136,15.424
		c-2.144,5.344-7.328,8.768-13.12,8.80c-64.00,0.16-115.936-51.456-116.16-115.456C 257.408,325.28, 263.392,305.568, 273.44,288.48L 239.616,254.752
		L 134.144,360.864L 111.264,399.36L 80.576,430.24L 21.12,463.168l-9.76-9.60l-9.568-9.60L 34.24,384.224l 30.72-30.912l 38.368-23.168l 105.44-106.08L 174.944,190.496
		c-17.12,10.048-36.80,16.256-58.048,16.32c-64.00,0.256-116.00-51.488-116.224-115.488c-0.032-5.632, 3.36-10.752, 8.544-12.896
		c 5.216-2.176, 11.232-0.992, 15.232,3.008l 41.376,41.12l 67.456-14.592l 14.208-67.488l-41.28-41.056c-4.064-4.064-5.312-10.112-3.072-15.424
		c 2.144-5.312, 7.328-8.736, 13.024-8.80c 64.00-0.128, 116.00,51.488, 116.256,115.488c 0.064,19.136-5.024,36.864-13.152,52.80l 35.104,34.88l 64.704-65.152
		c0.00,0.00-17.312-17.216-24.064-23.968c-6.752-6.688-1.056-12.512-1.056-12.512s 3.872-3.808, 9.632-9.632c 5.792-5.824, 30.784-0.128, 30.784-0.128
		l 15.328-15.424c0.00,0.00, 72.192-72.672, 78.368-78.88c 6.304-6.304, 24.992-5.92, 30.816-0.128c 5.824,5.76, 15.424,15.328, 15.424,15.328
		s 9.696,9.568, 15.424,15.328C 495.424,8.928, 496.064,27.616, 489.824,33.952" data-tags="synergy-tools" />
<glyph unicode="&#xe02b;" d="M 374.816,116.64l 77.696,77.696L 378.40,268.48c-2.848-10.56-8.064-20.608-16.416-28.896
		c-24.96-24.96-65.504-24.96-90.464,0.00c-24.96,24.992-24.96,65.536,0.00,90.496c 8.352,8.288, 18.336,13.60, 28.832,16.384L 226.24,420.608L 151.072,345.344
		c-3.04,9.28-7.968,17.984-15.328,25.344c-24.992,25.056-65.504,25.056-90.496,0.00c-24.992-24.96-24.992-65.472,0.00-90.496
		c 7.36-7.36, 16.128-12.256, 25.376-15.296L0.00,194.304l 74.144-74.176c 2.784,10.56, 8.064,20.64, 16.352,28.896c 24.992,24.96, 65.504,24.96, 90.496,0.00
		c 25.024-24.992, 25.024-65.536,0.00-90.464c-8.256-8.32-18.304-13.632-28.864-16.384l 74.112-74.208l 73.152,73.152
		c 2.368-11.84, 8.192-23.264, 17.376-32.448c 24.992-24.992, 65.504-24.96, 90.496,0.00s 24.992,65.504,0.00,90.496
		C 398.048,108.448, 386.752,114.176, 374.816,116.64" data-tags="synergy-elements-a" />
<glyph unicode="&#xe02c;" d="M 448.00,318.656l0.00-7.328 l-0.224,0.00 C 446.72,299.872, 418.656,290.656, 384.00,290.656
		s-62.72,9.184-63.776,20.672L 320.00,311.328 L 320.00,356.00 l 0.448,0.00 L 320.00,354.656c0.00-11.808, 28.672-21.312, 64.00-21.312s 64.00,9.504, 64.00,21.312S 419.328,376.00, 384.00,376.00
		c-19.904,0.00-37.44-3.104-49.184-7.84L 319.552,374.816C 317.76,363.552, 290.112,354.656, 256.00,354.656c-34.112,0.00-61.76,8.896-63.584,20.16L 177.184,368.16
		C 165.44,372.896, 147.904,376.00, 128.00,376.00c-35.328,0.00-64.00-9.536-64.00-21.344s 28.672-21.312, 64.00-21.312s 64.00,9.504, 64.00,21.312L 191.584,356.00L 192.00,356.00 l0.00-44.672 L 191.776,311.328 
		C 190.72,299.872, 162.656,290.656, 128.00,290.656S 65.28,299.872, 64.224,311.328L 64.00,311.328 L 64.00,318.656 L0.00,290.656l 256.00-128.00l 256.00,128.00L 448.00,318.656z M 320.00,244.672L 319.776,244.672 
		C 318.72,233.216, 290.656,224.00, 256.00,224.00S 193.28,233.216, 192.224,244.672L 192.00,244.672 L 192.00,289.344 l 0.416,0.00 L 192.00,288.00c0.00-11.808, 28.672-21.312, 64.00-21.312c 35.328,0.00, 64.00,9.504, 64.00,21.312
		L 319.552,289.344L 320.00,289.344 L 320.00,244.672 zM 256.00,397.344c 35.328,0.00, 64.00,9.536, 64.00,21.312C 320.00,430.464, 291.328,440.00, 256.00,440.00
		c-35.328,0.00-64.00-9.536-64.00-21.344C 192.00,406.88, 220.672,397.344, 256.00,397.344M0.00,96.00L 256.00-32.00L 256.00,130.72L0.00,258.656 zM 288.00-29.344L 512.00,82.656L 512.00,258.656L 288.032,134.688 z" data-tags="synergy-elements" />
<glyph unicode="&#xe000;" d="M 288.00,256.00L 288.00,320.00L 224.00,320.00L 224.00,256.00L 160.00,256.00L 160.00,192.00L 224.00,192.00L 224.00,128.00L 288.00,128.00L 288.00,192.00L 352.00,192.00L 352.00,256.00 z" data-tags="synergy-add-small" />
<glyph unicode="&#xe001;" d="M 416.00,308.32L 348.128,376.192L 257.632,285.696L 167.072,376.192L 99.20,308.32L 189.76,217.824L 99.20,127.328L 167.136,59.424L 257.632,149.952L 348.128,59.424L 416.00,127.328L 325.504,217.824 z" data-tags="synergy-close" />
<glyph unicode="&#xe002;" d="M 64.00,256.00L 416.00,256.00L 416.00,160.00L 64.00,160.00z" data-tags="synergy-delete" />
<glyph unicode="&#xe003;" d="M 288.00,256.00L 288.00,384.00L 256.00,384.00L 224.00,384.00L 192.00,384.00L 192.00,256.00L 64.00,256.00L 64.00,160.00L 192.00,160.00L 192.00,32.00L 224.00,32.00L 256.00,32.00L 288.00,32.00L 288.00,160.00L 416.00,160.00L 416.00,256.00 z" data-tags="synergy-add" />
<glyph unicode="&#xe004;" d="M 483.936,35.968L 259.68,428.416c-8.672,15.232-23.008,15.232-31.744,0.00L 3.68,35.968
		c-8.672-15.328-1.44-27.808, 16.128-27.808l 448.00,0.00 C 485.44,8.16, 492.672,20.672, 483.936,35.968 M 275.808,88.16c0.00-8.768-7.20-16.00-16.00-16.00l-32.00,0.00 
		c-8.736,0.00-16.00,7.232-16.00,16.00l0.00,32.00 c0.00,8.768, 7.264,16.00, 16.00,16.00l 32.00,0.00 c 8.80,0.00, 16.00-7.232, 16.00-16.00L 275.808,88.16 z M 275.808,184.16
		c0.00-8.768-7.20-16.00-16.00-16.00l-32.00,0.00 c-8.736,0.00-16.00,7.232-16.00,16.00l0.00,96.00 c0.00,8.80, 7.264,16.00, 16.00,16.00l 32.00,0.00 c 8.80,0.00, 16.00-7.20, 16.00-16.00L 275.808,184.16 z" data-tags="synergy-warning" />
<glyph unicode="&#xe00d;" d="M 320.00,256.00L 320.00,300.672 c0.00,78.304-64.576,141.984-144.00,141.984c-79.36,0.00-144.00-63.68-144.00-141.984L 32.00,256.00 L0.00,256.00 l0.00-288.00 
		l 352.00,0.00 L 352.00,256.00 L 320.00,256.00 z M 198.304,32.032L 145.312,32.032 l 13.504,73.408c-7.936,4.544-13.504,12.80-13.504,22.592c0.00,14.656, 11.872,26.528, 26.496,26.528
		s 26.496-11.872, 26.496-26.528c0.00-9.792-5.568-18.048-13.504-22.592L 198.304,32.032z M 256.00,256.00L 96.00,256.00 L 96.00,300.672 c0.00,42.304, 36.64,77.984, 80.00,77.984
		S 256.00,342.976, 256.00,300.672L 256.00,256.00 z" data-tags="synergy-locked" />
<glyph unicode="&#xe00e;" d="M 352.00,32.00l-32.00,0.00 L 320.00,288.00 L 256.00,288.00 l0.00-256.00 L 224.00,32.00 L 224.00,288.00 L 160.00,288.00 l0.00-256.00 L 128.00,32.00 L 128.00,288.00 L 64.00,288.00 l0.00-304.00 C 64.00-24.80, 71.232-32.00, 80.00-32.00l 320.00,0.00 
		c 8.80,0.00, 16.00,7.20, 16.00,16.00L 416.00,288.00 l-64.00,0.00 L 352.00,32.00 zM 448.00,416.00l-128.00,0.00 L 320.00,464.00 C 320.00,472.768, 312.80,480.00, 304.00,480.00l-128.00,0.00 C 167.232,480.00, 160.00,472.768, 160.00,464.00L 160.00,416.00 L 32.00,416.00 
		C 14.432,416.00,0.00,401.60,0.00,384.00l0.00-32.00 c0.00-17.60, 14.432-32.00, 32.00-32.00l 416.00,0.00 c 17.632,0.00, 32.00,14.40, 32.00,32.00L 480.00,384.00 C 480.00,401.60, 465.632,416.00, 448.00,416.00 M 192.00,448.00l 96.00,0.00 l0.00-32.00 L 192.00,416.00 L 192.00,448.00 z" data-tags="synergy-trash" />
<glyph unicode="&#xe010;" d="M 473.12,348.288L 383.424,438.08c-12.352,12.288-32.192,12.672-43.936,0.864l-2.176-3.264
		l-0.576,0.608L 293.696,393.184l 134.56-134.624l 43.136,43.072l-0.64,0.608l 3.264,2.112C 485.888,316.16, 485.504,336.00, 473.12,348.288M 11.104,46.432L0.00-32.00L 78.56-20.928L 156.96-9.696L 89.632,57.632L 22.272,124.864 zM 179.168,58.048L 156.736,80.448L 358.688,282.496L 313.76,327.328L 111.808,125.44L 89.344,147.808L 291.328,349.824L 268.864,372.128L 44.544,147.808L 179.168,13.248L 403.488,237.568L 381.056,260.00 z" data-tags="synergy-edit" />
<glyph unicode="&#xe020;" d="M 276.896,145.28L 480.00,348.384l0.00-250.816 l-94.368,94.40l-22.624-22.624l 105.376-105.376L 43.68,63.968 l 105.376,105.376L 126.40,191.968L 32.00,97.568
	L 32.00,344.864 l 199.68-199.584l 22.56-22.656L 276.896,145.28z M 70.176,351.968l 368.128,0.00 L 254.24,167.872L 70.176,351.968z M0.00,31.968l 512.00,0.00 l0.00,352.00 L0.00,383.968 L0.00,31.968 z" data-tags="synergy-mail" />
<glyph unicode="&#xe023;" d="M 64.00,160.00l 416.00,0.00 l-64.00,160.00L 160.00,320.00 L 160.00,388.864 c0.00,38.688, 24.128,56.00, 48.00,56.00
		c 11.20,0.00, 22.368-4.00, 31.20-12.032C 231.072,424.256, 226.016,412.736, 226.016,399.968C 226.016,373.472, 247.488,352.00, 274.016,352.00c 26.464,0.00, 48.00,21.472, 48.00,47.968
		C 322.016,426.496, 300.512,448.00, 274.016,448.00C 272.064,448.00, 270.24,447.648, 268.384,447.424C 225.824,498.624, 128.00,479.328, 128.00,388.864L 128.00,320.00 L 96.00,320.00 l-64.00-160.00l0.00-64.00 l 192.00,0.00 l0.00-128.00 l 64.00,0.00 l0.00,128.00 l 192.00,0.00 l0.00,32.00 L 64.00,128.00 L 64.00,160.00 z" data-tags="synergy-lecture" />
<glyph unicode="&#xe006;" d="M 104.00,181.568c-16.00-6.624-32.16-11.328-36.96-18.784
		c-4.32-6.752-2.976-22.656-2.976-22.656l 159.776,0.00 c0.00,0.00, 1.344,15.904-3.008,22.656C 216.00,170.176, 199.872,174.944, 183.904,181.568
		C 167.936,188.256, 164.096,190.56, 164.096,190.56L 164.00,205.888c0.00,0.00, 5.984,4.672, 7.808,19.04C 175.552,223.84, 179.52,230.528, 179.712,234.048
		C 179.936,237.44, 179.20,246.784, 174.624,245.856c 0.96,7.136, 1.696,13.44, 1.28,16.864C 174.688,275.008, 162.592,288.00, 143.904,288.00C 125.28,288.00, 113.152,275.008, 112.00,262.72
		C 111.616,259.296, 112.32,252.992, 113.216,245.856C 108.672,246.784, 107.968,237.44, 108.16,234.048c 0.224-3.52, 4.128-10.208, 7.84-9.12
		c 1.856-14.40, 7.872-19.04, 7.872-19.04L 123.776,190.56C 123.776,190.56, 119.968,188.256, 104.00,181.568M 64.00,416.00l0.00-64.00 L0.00,352.00 l0.00-320.00 l 448.00,0.00 l0.00,64.00 l 64.00,0.00 L 512.00,416.00 L 64.00,416.00 z M 416.00,64.00l-32.00,0.00 c0.00,17.696-14.304,32.00-32.00,32.00s-32.00-14.304-32.00-32.00L 160.00,64.00 
		c0.00,17.696-14.304,32.00-32.00,32.00c-17.664,0.00-32.00-14.304-32.00-32.00L 32.00,64.00 L 32.00,320.00 l 384.00,0.00 L 416.00,64.00 z M 480.00,128.00l-32.00,0.00 L 448.00,352.00 L 96.00,352.00 L 96.00,384.00 l 384.00,0.00 L 480.00,128.00 zM 256.00,256.00L 341.312,256.00L 341.312,224.00L 256.00,224.00zM 256.00,192.00L 384.00,192.00L 384.00,160.00L 256.00,160.00z" data-tags="synergy-licenses" />
<glyph unicode="&#xe007;" d="M 211.488,183.712c0.00,0.00, 1.216,14.656-2.784,20.832C 204.256,211.456, 189.408,215.808, 174.688,221.952
		c-14.72,6.176-18.24,8.32-18.24,8.32l-0.128,14.08c0.00,0.00, 5.504,4.256, 7.232,17.536c 3.424-0.992, 7.104,5.184, 7.264,8.416
		c 0.192,3.136-0.48,11.712-4.672,10.88c 0.832,6.56, 1.504,12.384, 1.152,15.52C 166.208,308.032, 155.008,320.00, 137.824,320.00
		C 120.64,320.00, 109.472,308.032, 108.384,296.672c-0.288-3.136, 0.32-8.96, 1.152-15.52c-4.16,0.832-4.864-7.744-4.672-10.88
		c 0.224-3.232, 3.84-9.408, 7.296-8.416c 1.664-13.28, 7.232-17.536, 7.232-17.536L 119.232,230.208c0.00,0.00-3.456-2.144-18.208-8.32
		c-14.752-6.08-29.632-10.432-34.08-17.344C 62.976,198.368, 64.192,183.712, 64.192,183.712L 211.488,183.712 zM0.00,32.00l 512.00,0.00 L 512.00,384.00 L0.00,384.00 L0.00,32.00 z M 480.00,64.00l-66.944,0.00 C 414.88,69.024, 416.00,74.368, 416.00,80.00
		c0.00,26.528-21.504,48.00-48.00,48.00S 320.00,106.528, 320.00,80.00c0.00-5.632, 1.184-10.976, 2.944-16.00L 189.088,64.00 C 190.848,69.024, 192.00,74.368, 192.00,80.00
		C 192.00,106.528, 170.528,128.00, 144.00,128.00C 117.504,128.00, 96.00,106.528, 96.00,80.00c0.00-5.632, 1.184-10.976, 2.944-16.00L 32.00,64.00 L 32.00,352.00 l 448.00,0.00 L 480.00,64.00 zM 256.00,320.00L 384.00,320.00L 384.00,288.00L 256.00,288.00zM 256.00,256.00L 448.00,256.00L 448.00,224.00L 256.00,224.00zM 256.00,192.00L 415.968,192.00L 415.968,160.00L 256.00,160.00z" data-tags="synergy-license" />
<glyph unicode="&#xe009;" d="M 263.84,115.616C 228.704,130.24, 220.416,135.36, 220.416,135.36L 220.064,169.024
		c0.00,0.00, 13.152,10.08, 17.28,41.824c 8.192-2.336, 16.832,12.32, 17.312,20.00c 0.448,7.424-1.152,28.064-11.20,26.016
		c 2.048,15.52, 3.52,29.504, 2.816,36.896C 243.68,320.864, 217.024,349.376, 176.032,349.376c-40.928,0.00-67.616-28.512-70.24-55.616
		C 105.088,286.368, 106.56,272.384, 108.608,256.864C 98.56,258.912, 96.96,238.272, 97.44,230.848c 0.448-7.744, 9.088-22.40, 17.344-20.00
		C 118.848,179.20, 132.032,169.024, 132.032,169.024L 131.68,135.36c0.00,0.00-8.352-5.12-43.392-19.744c-35.20-14.624-70.656-24.864-81.184-41.376
		C-2.40,59.552, 0.448-32.00, 0.448-32.00l 351.20,0.00 c0.00,0.00, 2.816,91.552-6.656,106.24C 334.464,90.752, 298.976,100.992, 263.84,115.616M 505.696,63.488c-9.472,14.752-9.344,23.936-40.864,37.12
		c-31.552,13.12-39.072,17.76-39.072,17.76l-0.288,30.24c0.00,0.00, 11.808,9.024, 15.456,37.568c 7.36-2.112, 15.168,11.04, 15.552,17.984
		c 0.384,6.656-0.992,25.216-10.016,23.328c 1.824,13.984, 3.20,26.528, 2.528,33.184c-2.304,24.32-26.272,49.952-63.136,49.952
		s-60.704-25.632-63.136-49.952c-0.64-6.656, 0.672-19.20, 2.56-33.184C 316.288,229.344, 314.848,210.848, 315.328,204.192
		c 0.384-6.976, 8.192-20.128, 15.52-17.984c 3.68-28.544, 15.488-37.568, 15.488-37.568l-10.368-8.192c 29.536-14.016, 61.792-33.792, 61.792-53.60L 397.76-32.00 
		l 113.952,0.00 C 511.648-32.00, 514.176,50.24, 505.696,63.488" data-tags="synergy-users" />
<glyph unicode="&#xe00b;" d="M 193.952,137.952l 101.824,101.824l 14.40-14.496c 3.072,2.752, 18.496,18.272, 23.744,58.688
		c 11.584-3.392, 23.872,17.312, 24.512,28.256c 0.64,10.528-1.632,39.744-15.84,36.864c 2.912,21.984, 5.024,41.728, 4.00,52.192
		C 342.944,439.584, 305.184,480.00, 247.20,480.00S 151.424,439.584, 147.776,401.28C 146.72,390.752, 148.864,371.072, 151.776,349.088c-14.24,2.88-16.448-26.368-15.84-36.864
		C 136.64,301.28, 148.80,280.576, 160.512,283.968c 5.76-44.896, 24.384-59.232, 24.384-59.232L 184.448,177.056c0.00,0.00-11.808-7.20-61.504-27.904
		c-49.728-20.704-99.936-35.232-114.944-58.56c-13.376-20.832-9.376-121.216-9.376-121.216l 250.752,0.00 l-55.424,55.424l 56.576,56.576L 193.952,137.952zM 387.872,115.072L 331.328,171.616L 286.048,126.368L 342.624,69.824L 286.048,13.216L 331.328-32.00L 387.872,24.576L 444.48-32.00L 489.696,13.216L 433.12,69.824L 489.696,126.368L 444.48,171.616 z" data-tags="synergy-delete-user" />
<glyph unicode="&#xe04e;" d="M 256.032,32.00l0.00,128.00 l 32.00,0.00 L 288.032,192.00 L 311.68,192.00 L 311.424,223.36c0.00,0.00, 18.624,14.336, 24.384,59.20
		c 11.616-3.36, 23.872,17.376, 24.576,28.32c 0.672,10.528-1.632,39.744-15.808,36.80c 2.88,22.016, 4.992,41.792, 3.936,52.256
		c-3.68,38.304-41.376,78.72-99.328,78.72c-57.984,0.00-95.744-40.416-99.424-78.72C 148.672,389.472, 150.752,369.696, 153.632,347.68
		c-14.208,2.944-16.448-26.272-15.808-36.80c 0.672-10.944, 12.864-31.68, 24.544-28.32c 5.76-44.864, 24.448-59.20, 24.448-59.20L 186.304,175.68
		c0.00,0.00-11.808-7.20-61.504-27.904c-49.664-20.704-99.936-35.232-114.848-58.528C-3.456,68.384, 0.608-32.00, 0.608-32.00l 319.424,0.00 l0.00,64.00 L 256.032,32.00 zM 434.176,128.00L 434.176,192.00L 370.176,192.00L 370.176,128.00L 306.176,128.00L 306.176,64.00L 370.176,64.00L 370.176,0.00L 434.176,0.00L 434.176,64.00L 498.176,64.00L 498.176,128.00 z" data-tags="synergy-add-user" />
<glyph unicode="&#xe04f;" d="M 488.256,89.248c-14.944,23.328-65.12,37.824-114.88,58.528
		C 323.68,168.512, 311.872,175.68, 311.872,175.68L 311.424,223.36c0.00,0.00, 18.624,14.336, 24.384,59.20c 11.68-3.36, 23.872,17.376, 24.576,28.32
		c 0.672,10.528-1.632,39.744-15.808,36.80c 2.88,22.016, 4.992,41.792, 4.00,52.256c-3.744,38.304-41.44,78.72-99.456,78.72
		s-95.744-40.416-99.424-78.72C 148.672,389.472, 150.784,369.696, 153.664,347.68c-14.208,2.944-16.448-26.272-15.808-36.80
		C 138.528,299.936, 150.72,279.20, 162.40,282.56c 5.76-44.864, 24.416-59.20, 24.416-59.20L 186.336,175.68c0.00,0.00-11.808-7.20-61.504-27.904
		c-49.728-20.704-99.936-35.20-114.88-58.528C-3.456,68.384, 0.576-32.00, 0.576-32.00l 497.056,0.00 C 497.632-32.00, 501.696,68.384, 488.256,89.248" data-tags="synergy-user" />
<glyph unicode="&#xe050;" d="M 416.00,416.00L 416.00,464.00 C 416.00,472.80, 408.80,480.00, 400.00,480.00l-64.00,0.00 C 327.20,480.00, 320.00,472.80, 320.00,464.00L 320.00,416.00 L 160.00,416.00 L 160.00,464.00 
		C 160.00,472.80, 152.832,480.00, 144.00,480.00l-64.00,0.00 C 71.168,480.00, 64.00,472.80, 64.00,464.00L 64.00,416.00 L0.00,416.00 l0.00-448.00 l 480.00,0.00 L 480.00,416.00 L 416.00,416.00 z M 352.00,448.00l 32.00,0.00 l0.00-64.00 l-32.00,0.00 L 352.00,448.00 z M 96.00,448.00l 32.00,0.00 l0.00-64.00 L 96.00,384.00 L 96.00,448.00 z M 448.00,0.00L 32.00,0.00 L 32.00,320.00 l 416.00,0.00 L 448.00,0.00 zM 160.00,288.00L 224.00,288.00L 224.00,224.00L 160.00,224.00zM 256.00,288.00L 320.00,288.00L 320.00,224.00L 256.00,224.00zM 352.00,288.00L 416.00,288.00L 416.00,224.00L 352.00,224.00zM 64.00,192.00L 128.00,192.00L 128.00,128.00L 64.00,128.00zM 160.00,192.00L 224.00,192.00L 224.00,128.00L 160.00,128.00zM 256.00,192.00L 320.00,192.00L 320.00,128.00L 256.00,128.00zM 352.00,192.00L 416.00,192.00L 416.00,128.00L 352.00,128.00zM 64.00,96.00L 128.00,96.00L 128.00,32.00L 64.00,32.00zM 160.00,96.00L 224.00,96.00L 224.00,32.00L 160.00,32.00zM 256.00,96.00L 320.00,96.00L 320.00,32.00L 256.00,32.00z" data-tags="synergy-calendar" />
<glyph unicode="&#xe012;" d="M 192.00,368.448l 128.00,45.984l0.00-357.28 l-128.00-45.952L 192.00,368.448 z M 32.00,57.184L 32.00,414.496 l 128.00-45.984l0.00-357.248 L 32.00,57.184z M 352.00,57.184L 352.00,414.496 
	l 128.00-45.984l0.00-357.248 L 352.00,57.184z M0.00,34.688l 176.00-63.264l 160.00,57.504L 505.568-32.00L 512.00-32.00 L 512.00,390.944 l-176.00,63.232l-160.00-57.44L0.00,460.00L0.00,34.688 z" data-tags="synergy-location" />
<glyph unicode="&#xe013;" d="M 448.00,256.00l 16.00,0.00 C 472.864,256.00, 480.00,263.168, 480.00,272.00L 480.00,288.00 L 32.00,288.00 l0.00-16.00 C 32.00,263.168, 39.20,256.00, 48.00,256.00L 64.00,256.00 l0.00-224.00 l-64.00-64.00l 512.00,0.00 
		l-64.00,64.00L 448.00,256.00 z M 96.00,256.00l 64.00,0.00 l0.00-224.00 L 96.00,32.00 L 96.00,256.00 z M 224.00,256.00l 64.00,0.00 l0.00-224.00 L 224.00,32.00 L 224.00,256.00 z M 352.00,256.00l 64.00,0.00 l0.00-224.00 l-64.00,0.00 L 352.00,256.00 zM 256.00,480.00L0.00,320.00L 512.00,320.00 z" data-tags="synergy-library" />
<glyph unicode="&#xe015;" d="M 101.152,224.64l 146.144,111.584l 146.208-111.584l0.00-221.024 L 311.456,3.616 L 311.456,138.88 L 183.232,138.88 l0.00-135.264 L 101.152,3.616 L 101.152,224.64 z M0.00,232.608l 38.88-50.912
	l 26.656,20.32L 65.536-32.00 L 429.12-32.00 L 429.12,201.984 l 26.656-20.32l 38.848,50.88l-89.696,68.48l0.00,113.28 l-64.096,0.00 l0.00-64.352 L 247.296,421.408L0.00,232.608z" data-tags="synergy-home" />
<glyph unicode="&#xe016;" d="M 131.52,393.696L 108.896,416.32c-6.208,6.176-16.416,6.176-22.624,0.00
		c-6.208-6.24-6.208-16.448,0.00-22.624l 22.624-22.624c 6.208-6.24, 16.416-6.24, 22.624,0.00C 137.728,377.248, 137.728,387.456, 131.52,393.696M 48.00,256.00l-32.00,0.00 C 7.232,256.00,0.00,248.80,0.00,240.00S 7.232,224.00, 16.00,224.00l 32.00,0.00 C 56.80,224.00, 64.00,231.20, 64.00,240.00
		S 56.80,256.00, 48.00,256.00M 495.872,224.064l-32.00,0.00 c-8.736,0.00-16.00-7.20-16.00-16.00s 7.264-16.00, 16.00-16.00l 32.00,0.00 
		c 8.80,0.00, 16.00,7.20, 16.00,16.00S 504.672,224.064, 495.872,224.064M 448.192,393.696c-6.176,6.176-16.384,6.176-22.624,0.00l-22.624-22.624
		c-6.176-6.24-6.176-16.448,0.00-22.624c 6.24-6.24, 16.448-6.24, 22.624,0.00l 22.624,22.624C 454.432,377.248, 454.432,387.456, 448.192,393.696M 271.936,415.936c 4.416,0.00, 8.416,1.824, 11.328,4.736
		c 2.88,2.88, 4.704,6.88, 4.704,11.328l0.00,32.00 c0.00,8.80-7.232,16.00-16.00,16.00c-6.624,0.00-12.352-4.064-14.72-9.824L 255.936,463.936l 0.032-32.00
		C 255.968,423.136, 263.168,415.936, 271.936,415.936M 255.872,352.00c-70.688,0.00-128.00-57.312-128.00-128.00c0.00-47.264, 25.92-88.064, 64.00-110.24L 191.872,64.00 l 128.00,0.00 l0.00,49.76 
		c 38.112,22.176, 64.00,63.008, 64.00,110.24C 383.872,294.688, 326.56,352.00, 255.872,352.00 M 303.776,141.376l-15.904-9.248l0.00-18.368 L 287.872,96.00 l-64.00,0.00 l0.00,17.76 l0.00,18.368 L 208.00,141.376
		C 177.856,158.944, 159.872,189.824, 159.872,224.00c0.00,52.928, 43.072,96.00, 96.00,96.00c 52.928,0.00, 96.00-43.072, 96.00-96.00C 351.872,189.824, 333.952,158.944, 303.776,141.376M 191.904,0.00l 32.928,0.00 l-0.928-4.00c0.00-15.424, 14.40-28.00, 32.00-28.00s 32.00,12.576, 32.00,28.00
		L 286.976,0.00l 32.928,0.00 l0.00,32.00 l-128.00,0.00 L 191.904,0.00 z" data-tags="synergy-idea" />
<glyph unicode="&#xe017;" d="M 256.00,480.00C 114.816,480.00,0.00,365.12,0.00,224.00c0.00-141.184, 114.816-256.00, 256.00-256.00c 141.184,0.00, 256.00,114.816, 256.00,256.00
		C 512.00,365.12, 397.184,480.00, 256.00,480.00 M 343.264,430.368L 318.304,371.456c-39.424,16.608-85.152,16.608-124.576,0.00l-24.96,58.912
		C 224.096,453.76, 287.936,453.76, 343.264,430.368 M 108.608,161.696l-59.008-24.928C 37.984,164.384, 32.00,193.76, 32.00,224.00c0.00,30.272, 5.92,59.584, 17.568,87.20
		l 58.976-24.928C 100.192,266.56, 96.00,245.632, 96.00,224.00C 96.00,202.336, 100.192,181.376, 108.608,161.696 M 256.00,0.00c-30.24,0.00-59.584,5.888-87.232,17.632l 24.96,58.944
		c 39.424-16.672, 85.152-16.672, 124.576,0.00l 24.928-58.944C 315.552,5.888, 286.24,0.00, 256.00,0.00 M 256.00,96.00c-70.592,0.00-128.00,57.376-128.00,128.00c0.00,70.56, 57.408,128.00, 128.00,128.00
		c 70.624,0.00, 128.00-57.44, 128.00-128.00C 384.00,153.376, 326.624,96.00, 256.00,96.00 M 403.424,161.696C 411.808,181.376, 416.00,202.336, 416.00,224.00c0.00,21.632-4.192,42.56-12.576,62.272
		l 58.944,24.928C 474.112,283.584, 480.00,254.272, 480.00,224.00c0.00-30.24-5.888-59.616-17.632-87.264L 403.424,161.696z" data-tags="synergy-help-a" />
<glyph unicode="&#xe018;" d="M 240.00,384.00C 142.816,384.00, 64.00,305.184, 64.00,208.00S 142.816,32.00, 240.00,32.00S 416.00,110.816, 416.00,208.00S 337.184,384.00, 240.00,384.00
		 M 342.624,150.624l-45.248-45.248L 240.00,162.752l-57.376-57.376l-45.248,45.248L 194.752,208.00L 137.376,265.376l 45.248,45.248L 240.00,253.248l 57.376,57.376
		l 45.248-45.248L 285.248,208.00L 342.624,150.624z" data-tags="synergy-close-dark" />
<glyph unicode="&#xe019;" d="M 240.00,384.00C 142.752,384.00, 64.00,305.184, 64.00,208.00S 142.752,32.00, 240.00,32.00c 97.184,0.00, 176.00,78.816, 176.00,176.00
		S 337.184,384.00, 240.00,384.00 M 352.00,176.00L 128.00,176.00 l0.00,64.00 l 224.00,0.00 L 352.00,176.00 z" data-tags="synergy-delete-dark" />
<glyph unicode="&#xe051;" d="M 240.00,384.00C 142.752,384.00, 64.00,305.184, 64.00,208.00S 142.752,32.00, 240.00,32.00c 97.184,0.00, 176.00,78.816, 176.00,176.00
		S 337.184,384.00, 240.00,384.00 M 352.00,176.00L 272.00,176.00 L 272.00,96.00 l-64.00,0.00 L 208.00,176.00 L 128.00,176.00 l0.00,64.00 l 80.00,0.00 L 208.00,320.00 l 64.00,0.00 l0.00-80.00 L 352.00,240.00 L 352.00,176.00 z" data-tags="synergy-add-dark" />
<glyph unicode="&#xe052;" d="M 352.00,274.752L 306.752,320.00L 249.376,262.624L 192.00,320.00L 146.752,274.752L 204.128,217.376L 146.752,160.00L 192.00,114.752L 249.376,172.128L 306.752,114.752L 352.00,160.00L 294.624,217.376 z" data-tags="synergy-close-small" />
<glyph unicode="&#xe053;" d="M 160.00,256.00L 352.00,256.00L 352.00,192.00L 160.00,192.00z" data-tags="synergy-delete-small" />
<glyph unicode="&#xe02d;" d="M 418.592,386.528c-95.776,95.68-251.008,95.68-346.752,0.00
		c-95.776-95.68-95.776-251.04,0.00-346.752c 95.744-95.744, 251.04-95.68, 346.752,0.00C 514.304,135.424, 514.304,290.848, 418.592,386.528 M 234.88,15.904
		c-26.624,0.00-48.352,21.504-48.352,47.936c0.00,27.136, 21.248,48.384, 48.352,48.384c 26.432,0.00, 47.936-21.696, 47.936-48.384
		C 282.816,37.888, 260.864,15.904, 234.88,15.904 M 268.608,183.968l0.00-26.56 c0.00-12.896-5.056-17.984-18.016-17.984L 215.904,139.424 
		c-12.96,0.00-17.952,5.056-17.952,17.984L 197.952,216.768 c0.00,15.008, 15.36,19.456, 28.928,23.392c 3.328,0.992, 6.752,1.984, 10.08,3.104
		C 254.528,249.632, 265.376,257.504, 265.376,277.12c0.00,6.368,0.00,25.696-31.424,25.696c-19.392,0.00-36.992-7.456-47.488-11.872
		C 180.512,288.48, 177.568,287.232, 174.56,287.232c-6.048,0.00-11.808,4.864-12.672,9.856L 149.824,328.64C 148.032,332.288, 148.032,335.168, 148.032,337.472
		c0.00,23.232, 72.384,36.064, 96.384,36.064c 60.448,0.00, 101.056-38.944, 101.056-96.896C 345.504,213.984, 298.432,194.336, 268.608,183.968" data-tags="synergy-questions" />
<glyph unicode="&#xe02e;" d="M 404.672,359.264l-42.88-48.192C 394.816,281.76, 416.032,239.488, 416.032,192.00
		c0.00-88.256-71.776-160.00-160.00-160.00c-88.16,0.00-160.00,71.744-160.00,160.00c0.00,47.488, 21.216,89.76, 54.176,119.072L 107.328,359.264C 61.312,318.176, 32.00,258.592, 32.00,192.00
		c0.00-123.68, 100.256-224.00, 224.00-224.00c 123.68,0.00, 224.00,100.32, 224.00,224.00C 480.032,258.592, 450.816,318.176, 404.672,359.264M 224.00,160.00L 288.00,160.00L 288.00,352.00L 352.00,352.00L 256.00,480.00L 160.00,352.00L 224.00,352.00 z" data-tags="synergy-power" />
<glyph unicode="&#xe02f;" d="M 480.352,352.32c-17.76-2.56-32.32,10.08-32.32,28.032L 448.032,388.864 
		c0.00,16.256-12.192,28.288-27.872,28.288c-1.088,0.00-2.208-0.064-3.392-0.192c-0.192-0.064-0.48-0.064-0.672-0.064l-192.32-24.064
		C 206.272,390.624, 192.032,403.264, 192.032,420.864C 192.032,436.672, 180.544,448.00, 165.60,448.00c-1.696,0.00-3.392-0.128-5.12-0.416L 31.584,426.112
		C 14.208,423.20, 0.032,406.464, 0.032,388.864l0.00-288.00 c0.00-35.264, 20.384-84.416, 45.248-109.312l 7.424-7.36c 6.208-6.176, 18.464-10.24, 27.136-9.024
		l 416.32,59.424c 8.704,1.248, 15.872,9.472, 15.872,18.272l0.00,272.00 C 512.032,342.464, 497.824,354.816, 480.352,352.32 M 416.032,343.136L 79.84,295.104
		c-8.672-1.248-15.808-9.472-15.808-18.24l0.00-198.56 l-32.00-4.576L 32.032,388.864 c0.00,1.952, 2.88,5.344, 4.80,5.664l 123.20,20.544l0.00-44.352 
		c0.00-4.576, 1.952-8.96, 5.376-11.968c 3.488-3.04, 8.064-4.48, 12.608-3.904L 195.968,357.12l 204.192,25.472c 8.704,1.12, 15.872-5.216, 15.872-13.984
		L 416.032,343.136 z" data-tags="synergy-folder-a" />
<glyph unicode="&#xe030;" d="M 224.00,256.00L 128.00,160.00L 128.00,320.00L 96.00,320.00L 96.00,64.00L 384.00,64.00L 384.00,96.00L 128.00,96.00L 128.00,114.752L 224.00,210.752L 288.00,146.752L 384.00,242.752L 384.00,288.00L 288.00,192.00 zM 384.00,425.376l 41.376-41.408L 384.00,383.968 L 384.00,425.376 z M 64.00,448.00l 288.00,0.00 l0.00-96.032 l 96.032,0.00 L 448.032,0.00 L 64.00,0.00 L 64.00,448.00 z M 32.00,480.00l0.00-512.00 l 448.00,0.00 L 480.00,374.624 L 374.624,480.00L 32.00,480.00 z" data-tags="synergy-reports" />
<glyph unicode="&#xe031;" d="M 288.064,161.44L 128.064,1.44L 32.032,97.472L 192.032,257.472zM 0.032-30.56L 96.032-30.56L 0.032,65.44 zM 352.032,436.32l 114.816-114.88l-114.816,0.00 L 352.032,436.32 z M 64.00,480.00l0.00-224.00 l 32.00,0.00 L 96.00,449.44 l 224.00,0.00 l0.00-160.00 l 160.032,0.00 l0.00-288.00 L 224.00,1.44 l0.00-32.00 l 288.00,0.00 L 512.00,321.568 L 353.536,480.00L 64.00,480.00 z" data-tags="synergy-edit-doc" />
<glyph unicode="&#xe032;" d="M 160.032,288.00c-88.384,0.00-160.00-71.616-160.00-160.00s 71.616-160.00, 160.00-160.00s 160.00,71.616, 160.00,160.00S 248.416,288.00, 160.032,288.00
		 M 256.032,64.00l-32.00-32.00l-64.00,64.00l-64.00-64.00l-32.00,32.00l 64.00,64.00l-64.00,64.00l 32.00,32.00l 64.00-64.00l 64.00,64.00l 32.00-32.00l-64.00-64.00L 256.032,64.00zM 352.096,481.44L 64.032,481.44 L 64.032,320.00 l 32.00,0.00 L 96.032,449.44 l 224.00,0.00 l0.00-160.00 l 160.00,0.00 l0.00-288.00 l-160.00,0.00 l0.00-32.00 l 192.00,0.00 L 512.032,321.568 L 352.096,481.44z M 352.032,321.44l0.00,114.88 l 114.816-114.88L 352.032,321.44 z" data-tags="synergy-close-doc" />
<glyph unicode="&#xe033;" d="M 144.032,256.00c-79.552,0.00-144.00-64.512-144.00-144.00c0.00-79.552, 64.448-144.00, 144.00-144.00
		c 79.488,0.00, 144.00,64.448, 144.00,144.00C 288.032,191.488, 223.52,256.00, 144.032,256.00 M 224.032,96.00l-160.00,0.00 l0.00,32.00 l 160.00,0.00 L 224.032,96.00 zM 352.032,434.848L 466.848,320.00l-114.816,0.00 L 352.032,434.848 z M 64.00,480.00l0.00-192.00 l 32.00,0.00 L 96.00,448.00 l 224.00,0.00 l0.00-160.00 l 160.032,0.00 l0.00-288.00 L 288.032,0.00 l0.00-32.00 L 512.00-32.00 L 512.00,320.096 L 352.096,480.00L 64.00,480.00 z" data-tags="synergy-delete-doc" />
<glyph unicode="&#xe034;" d="M 144.032,256.00c-79.552,0.00-144.00-64.512-144.00-144.00c0.00-79.552, 64.448-144.00, 144.00-144.00
		c 79.488,0.00, 144.00,64.448, 144.00,144.00C 288.032,191.488, 223.52,256.00, 144.032,256.00 M 224.032,96.00l-64.00,0.00 l0.00-64.00 l-32.00,0.00 l0.00,64.00 l-64.00,0.00 l0.00,32.00 l 64.00,0.00 L 128.032,192.00 l 32.00,0.00 l0.00-64.00 l 64.00,0.00 L 224.032,96.00 zM 352.032,434.848L 466.848,320.00l-114.816,0.00 L 352.032,434.848 z M 64.00,480.00l0.00-192.00 l 32.00,0.00 L 96.00,448.00 l 224.00,0.00 l0.00-160.00 l 160.032,0.00 l0.00-288.00 L 288.032,0.00 l0.00-32.00 L 512.00-32.00 L 512.00,320.096 L 352.096,480.00L 64.00,480.00 z" data-tags="synergy-add-doc" />
<glyph unicode="&#xe035;" d="M 144.032,256.00c-79.552,0.00-144.00-64.512-144.00-144.00c0.00-79.552, 64.448-144.00, 144.00-144.00
		c 79.488,0.00, 144.00,64.448, 144.00,144.00C 288.032,191.488, 223.52,256.00, 144.032,256.00 M 121.408,23.424l-33.952,33.952l-55.424,55.424l 33.952,33.952l 55.424-55.424L 222.08,192.00
		l 33.952-33.952L 121.408,23.424zM 352.032,434.848L 466.848,320.00l-114.816,0.00 L 352.032,434.848 z M 64.00,480.00l0.00-192.00 l 32.00,0.00 L 96.00,448.00 l 224.00,0.00 l0.00-160.00 l 160.032,0.00 l0.00-288.00 L 288.032,0.00 l0.00-32.00 L 512.00-32.00 L 512.00,320.096 L 352.096,480.00L 64.00,480.00 z" data-tags="synergy-doc-ok" />
<glyph unicode="&#xe036;" d="M 224.00,32.832l-22.016,67.584l 27.488,24.896l 40.896-42.272l 47.872,47.84L 281.632,175.20
		l 33.824,33.76c 43.424-15.392, 93.728-6.112, 128.48,28.608c 48.192,48.128, 48.192,126.24,0.00,174.40c-48.128,48.16-126.24,48.128-174.368,0.00
		c-34.688-34.72-44.00-84.928-28.672-128.32l-183.104-183.104L 32.00,0.832l 96.00,0.00 l 32.00,64.00L 224.00,32.832z M 384.80,392.832c 22.016,0.00, 40.00-17.952, 40.00-40.00
		s-17.984-40.00-40.00-40.00c-22.048,0.00-40.00,17.952-40.00,40.00S 362.752,392.832, 384.80,392.832" data-tags="synergy-key" />
<glyph unicode="&#xe037;" d="M 368.00,448.448C 288.64,448.448, 224.00,384.096, 224.00,304.896l0.00-49.408 L0.00,255.488 l0.00-288.00 l 352.00,0.00 l0.00,288.00 L 288.00,255.488 L 288.00,304.896 
		c0.00,43.904, 35.872,79.552, 80.00,79.552S 448.00,348.80, 448.00,304.896l0.00-49.408 l 64.00,0.00 L 512.00,304.896 C 512.00,384.096, 447.424,448.448, 368.00,448.448 M 201.12,31.488l-53.76,0.00 l 14.016,75.136
		c-8.192,4.64-14.016,13.088-14.016,23.20c0.00,14.88, 12.064,26.88, 26.88,26.88c 14.88,0.00, 26.88-12.00, 26.88-26.88c0.00-10.08-5.824-18.56-14.016-23.20
		L 201.12,31.488z" data-tags="synergy-unlocked" />
<glyph unicode="&#xe038;" d="M 224.00,385.792L 224.00,399.648 C 224.00,450.848, 209.024,480.00, 158.016,480.00c-31.968,0.00-58.56-22.24-65.44-52.032
		L 90.848,423.648L 88.032,413.536C 103.584,424.288, 122.432,430.656, 142.72,430.656C 176.96,430.656, 206.88,412.672, 224.00,385.792M 369.312,430.656c 20.32,0.00, 39.136-6.368, 54.688-17.12l-2.816,10.08l-1.696,4.352
		C 412.576,457.76, 385.952,480.00, 354.048,480.00C 303.008,480.00, 288.00,450.848, 288.00,399.648l0.00-13.856 C 305.12,412.672, 335.072,430.656, 369.312,430.656M 510.24,99.136c 2.752-2.784-47.008,173.344-48.064,177.056L 453.056,312.00l-7.808,28.096
		c-15.616,25.76-43.616,43.136-75.936,43.136c-40.736,0.00-69.824-25.376-81.824-61.376C 287.488,287.36, 288.00,282.688, 288.00,282.688l0.00-18.08 
		C 277.536,266.016, 266.88,266.784, 256.00,266.784c-10.848,0.00-21.504-0.768-32.00-2.176L 224.00,282.688 c0.00,0.00, 0.512,4.672, 0.512,39.168
		C 212.512,357.856, 183.488,383.232, 142.688,383.232c-32.288,0.00-60.288-17.376-75.904-43.136L 58.976,312.00L 49.824,276.192
		c-1.056-3.776-50.816-179.84-48.032-177.056C 0.864,93.312,0.00,87.424,0.00,81.344c0.00-61.92, 50.176-112.00, 112.00-112.00c 61.856,0.00, 112.00,50.08, 112.00,112.00l0.00,119.04 
		c 10.464,1.568, 21.152,2.40, 32.00,2.40c 10.88,0.00, 21.568-0.832, 32.00-2.40l0.00-119.04 c0.00-61.92, 50.176-112.00, 112.00-112.00c 61.888,0.00, 112.00,50.08, 112.00,112.00
		C 512.00,87.424, 511.20,93.312, 510.24,99.136 M 112.00,1.344c-44.096,0.00-80.00,35.904-80.00,80.00s 35.904,80.00, 80.00,80.00c 44.128,0.00, 80.00-35.904, 80.00-80.00
		S 156.128,1.344, 112.00,1.344 M 400.00,1.344c-44.128,0.00-80.00,35.904-80.00,80.00s 35.872,80.00, 80.00,80.00s 80.00-35.904, 80.00-80.00S 444.128,1.344, 400.00,1.344
		" data-tags="synergy-search-b" />
<glyph unicode="&#xe039;" d="M 500.672,47.20l-88.128,88.128C 434.88,170.176, 448.032,211.52, 448.032,256.00
		c0.00,123.712-100.288,224.00-224.00,224.00C 100.288,480.00,0.00,379.712,0.00,256.00s 100.288-224.00, 224.00-224.00c 44.48,0.00, 85.824,13.12, 120.64,35.424l 88.192-88.128c 6.144-6.208, 16.384-6.208, 22.624,0.00
		l 45.248,45.248C 506.944,30.816, 506.944,40.992, 500.672,47.20 M 224.00,96.00c-88.224,0.00-160.00,71.776-160.00,160.00s 71.776,160.00, 160.00,160.00s 160.00-71.776, 160.00-160.00S 312.256,96.00, 224.00,96.00" data-tags="synergy-search-a" />
<glyph unicode="&#xe03a;" d="M 379.648,189.216L 424.896,143.936L 402.24,121.312L 357.024,166.592zM 420.992,225.216L 484.992,225.216L 484.992,193.216L 420.992,193.216zM 402.24,347.616L 379.616,370.24L 424.864,415.488L 447.488,392.864zM 277.024,437.056L 308.992,437.056L 308.992,372.992L 277.024,372.992zM 198.656,324.96L 153.376,370.208L 176.032,392.864L 221.28,347.648zM 242.272,232.864l 67.84,67.84l 22.656-22.56L 264.896,210.24L 242.272,232.864z M 0.032,35.872L 67.872-32.00l 310.112,310.144
	L 310.048,346.016L 0.032,35.872z" data-tags="synergy-create" />
<glyph unicode="&#xe03b;" d="M 496.00,480.00l-480.00,0.00 C 7.232,480.00,0.00,472.80,0.00,464.00l0.00-96.00 C0.00,359.20, 7.232,352.00, 16.00,352.00l 480.00,0.00 
		C 504.80,352.00, 512.00,359.20, 512.00,368.00l0.00,96.00 C 512.00,472.80, 504.80,480.00, 496.00,480.00M 496.00,288.00l-480.00,0.00 C 7.232,288.00,0.00,280.80,0.00,272.00l0.00-96.00 C0.00,167.20, 7.232,160.00, 16.00,160.00l 480.00,0.00 
		c 8.80,0.00, 16.00,7.20, 16.00,16.00l0.00,96.00 C 512.00,280.80, 504.80,288.00, 496.00,288.00M 496.00,96.00l-480.00,0.00 C 7.232,96.00,0.00,88.80,0.00,80.00l0.00-96.00 C0.00-24.80, 7.232-32.00, 16.00-32.00l 480.00,0.00 
		c 8.80,0.00, 16.00,7.20, 16.00,16.00l0.00,96.00 C 512.00,88.80, 504.80,96.00, 496.00,96.00" data-tags="synergy-grid-view" />
<glyph unicode="&#xe03c;" d="M 112.00,480.00l-96.00,0.00 C 7.232,480.00,0.00,472.80,0.00,464.00l0.00-96.00 C0.00,359.20, 7.232,352.00, 16.00,352.00l 96.00,0.00 
		C 120.80,352.00, 128.00,359.20, 128.00,368.00l0.00,96.00 C 128.00,472.80, 120.80,480.00, 112.00,480.00M 112.00,288.00l-96.00,0.00 C 7.232,288.00,0.00,280.80,0.00,272.00l0.00-96.00 C0.00,167.20, 7.232,160.00, 16.00,160.00l 96.00,0.00 
		C 120.80,160.00, 128.00,167.20, 128.00,176.00l0.00,96.00 C 128.00,280.80, 120.80,288.00, 112.00,288.00M 112.00,96.00l-96.00,0.00 C 7.232,96.00,0.00,88.80,0.00,80.00l0.00-96.00 C0.00-24.80, 7.232-32.00, 16.00-32.00l 96.00,0.00 
		C 120.80-32.00, 128.00-24.80, 128.00-16.00l0.00,96.00 C 128.00,88.80, 120.80,96.00, 112.00,96.00M 304.00,480.00l-96.00,0.00 C 199.232,480.00, 192.00,472.80, 192.00,464.00l0.00-96.00 C 192.00,359.20, 199.232,352.00, 208.00,352.00l 96.00,0.00 
		C 312.80,352.00, 320.00,359.20, 320.00,368.00l0.00,96.00 C 320.00,472.80, 312.80,480.00, 304.00,480.00M 304.00,288.00l-96.00,0.00 C 199.232,288.00, 192.00,280.80, 192.00,272.00l0.00-96.00 C 192.00,167.20, 199.232,160.00, 208.00,160.00l 96.00,0.00 
		C 312.80,160.00, 320.00,167.20, 320.00,176.00l0.00,96.00 C 320.00,280.80, 312.80,288.00, 304.00,288.00M 304.00,96.00l-96.00,0.00 C 199.232,96.00, 192.00,88.80, 192.00,80.00l0.00-96.00 C 192.00-24.80, 199.232-32.00, 208.00-32.00l 96.00,0.00 
		c 8.80,0.00, 16.00,7.20, 16.00,16.00l0.00,96.00 C 320.00,88.80, 312.80,96.00, 304.00,96.00M 496.00,480.00l-96.00,0.00 C 391.264,480.00, 384.00,472.80, 384.00,464.00l0.00-96.00 C 384.00,359.20, 391.264,352.00, 400.00,352.00l 96.00,0.00 
		C 504.80,352.00, 512.00,359.20, 512.00,368.00l0.00,96.00 C 512.00,472.80, 504.80,480.00, 496.00,480.00M 496.00,288.00l-96.00,0.00 C 391.264,288.00, 384.00,280.80, 384.00,272.00l0.00-96.00 c0.00-8.80, 7.264-16.00, 16.00-16.00l 96.00,0.00 
		c 8.80,0.00, 16.00,7.20, 16.00,16.00l0.00,96.00 C 512.00,280.80, 504.80,288.00, 496.00,288.00M 496.00,96.00l-96.00,0.00 c-8.736,0.00-16.00-7.20-16.00-16.00l0.00-96.00 c0.00-8.80, 7.264-16.00, 16.00-16.00l 96.00,0.00 
		c 8.80,0.00, 16.00,7.20, 16.00,16.00l0.00,96.00 C 512.00,88.80, 504.80,96.00, 496.00,96.00" data-tags="synergy-icon-view" />
<glyph unicode="&#xe03d;" d="M 381.568,82.848l 55.008,36.672l 55.008-36.672l-55.008-36.704L 381.568,82.848z M 361.12,93.76l0.00-75.424 l 75.424-50.24
	L 512.00,18.24l0.00,75.424 l-75.424,50.24L 361.12,93.76zM 484.576,316.928L 484.576,408.352 l-91.392,60.992L 301.696,408.352l0.00-91.424 L 393.12,256.00L 484.576,316.928z M 393.12,439.616l 66.688-44.448
	L 393.12,350.72l-66.624,44.448L 393.12,439.616zM 42.752,208.064l 114.976,76.672l 114.944-76.672l-114.944-76.672L 42.752,208.064z M 0.032,230.88l0.00-157.76 L 157.728-32.00l 157.728,105.12
	l0.00,157.76 L 157.728,336.00L 0.032,230.88z" data-tags="synergy-modules" />
<glyph unicode="&#xe03f;" d="M 32.00,448.00l 448.00,0.00 l0.00-306.752 L 466.752,128.00L 352.00,128.00 l0.00-114.752 L 338.752,0.00L 32.00,0.00 L 32.00,448.00 z M0.00,480.00l0.00-512.00 l 352.00,0.00 l 160.00,160.00L 512.00,480.00 L0.00,480.00 z" data-tags="synergy-document" />
<glyph unicode="&#xe040;" d="M 192.00,384.00L 224.00,384.00L 224.00,352.00L 192.00,352.00zM 384.00,384.00L 416.00,384.00L 416.00,352.00L 384.00,352.00zM 288.00,384.00L 320.00,384.00L 320.00,352.00L 288.00,352.00zM 384.00,383.968L 384.00,416.00 l 32.00,0.00 l0.00-32.032 l 32.064,0.00 L 448.064,32.00 L 64.00,32.00 L 64.00,383.968 l 32.00,0.00 L 96.00,416.00 l 32.00,0.00 l0.00-32.032 L 192.00,383.968 L 192.00,416.00 l 32.00,0.00 l0.00-32.032 l 64.00,0.00 L 288.00,416.00 l 32.00,0.00 l0.00-32.032 L 384.00,383.968 z M 384.00,480.00l0.00-32.00 l-64.00,0.00 L 320.00,480.00 L 288.00,480.00 l0.00-32.00 L 224.00,448.00 L 224.00,480.00 L 192.00,480.00 l0.00-32.00 L 128.00,448.00 
	L 128.00,480.00 L 96.00,480.00 l0.00-32.00 L0.00,448.00 l0.00-480.00 l 512.032,0.00 L 512.032,448.00 L 416.00,448.00 L 416.00,480.00 L 384.00,480.00 zM 96.00,384.00L 128.00,384.00L 128.00,352.00L 96.00,352.00z" data-tags="synergy-tablet" />
<glyph unicode="&#xe041;" d="M 64.00,384.00l0.00-64.00 L0.00,320.00 l0.00-194.016 c0.00-35.328, 28.736-64.00, 64.00-64.00l 384.00,0.00 c 35.328,0.00, 64.00,28.672, 64.00,64.00L 512.00,384.00 L 64.00,384.00 z M 480.00,126.016
		c0.00-17.568-14.368-32.00-32.00-32.00L 64.00,94.016 c-17.568,0.00-32.00,14.432-32.00,32.00L 32.00,288.00 l 32.00,0.00 l0.00-162.016 l 32.00,0.00 L 96.00,352.00 l 384.00,0.00 L 480.00,126.016 zM 320.00,222.016L 448.00,222.016L 448.00,126.016L 320.00,126.016zM 128.00,221.984L 288.00,221.984L 288.00,189.984L 128.00,189.984zM 128.00,157.984L 288.00,157.984L 288.00,125.984L 128.00,125.984zM 128.00,318.016L 448.00,318.016L 448.00,254.016L 128.00,254.016z" data-tags="synergy-dashboard" />
<glyph unicode="&#xe043;" d="M 256.00,252.00L 352.00,288.00l0.00-64.00 L 256.00,188.00L 256.00,252.00 z M 352.00,480.00L 96.00,383.968L 96.00,32.00 l 64.032-64.00L 416.00,63.968L 416.00,416.00 L 160.032,320.00L 113.44,366.56l 46.592,17.408
	L 352.00,455.968L 352.00,480.00 z" data-tags="synergy-units" />
<glyph unicode="&#xe048;" d="M 80.00,448.00l-64.00,0.00 C 7.232,448.00,0.00,440.80,0.00,432.00l0.00-448.00 C0.00-24.80, 7.232-32.00, 16.00-32.00l 64.00,0.00 
		C 88.80-32.00, 96.00-24.80, 96.00-16.00l0.00,448.00 C 96.00,440.80, 88.80,448.00, 80.00,448.00 M 64.00,0.00L 32.00,0.00 l0.00,32.00 l 32.00,0.00 L 64.00,0.00 z M 64.00,384.00L 32.00,384.00 L 32.00,416.00 l 32.00,0.00 L 64.00,384.00 zM 368.00,256.00l-32.00,0.00 C 327.264,256.00, 320.00,248.80, 320.00,240.00l0.00-256.00 c0.00-8.80, 7.264-16.00, 16.00-16.00l 32.00,0.00 
		c 8.80,0.00, 16.00,7.20, 16.00,16.00l0.00,256.00 C 384.00,248.80, 376.80,256.00, 368.00,256.00M 496.00,288.00l-64.00,0.00 C 423.264,288.00, 416.00,280.80, 416.00,272.00l0.00-288.00 c0.00-8.80, 7.264-16.00, 16.00-16.00l 64.00,0.00 
		c 8.80,0.00, 16.00,7.20, 16.00,16.00l0.00,288.00 C 512.00,280.80, 504.80,288.00, 496.00,288.00 M 480.00,0.00l-32.00,0.00 l0.00,32.00 l 32.00,0.00 L 480.00,0.00 z M 480.00,224.00l-32.00,0.00 L 448.00,256.00 l 32.00,0.00 L 480.00,224.00 zM 272.00,352.00l-128.00,0.00 C 135.232,352.00, 128.00,344.80, 128.00,336.00l0.00-352.00 C 128.00-24.80, 135.232-32.00, 144.00-32.00l 128.00,0.00 
		C 280.80-32.00, 288.00-24.80, 288.00-16.00l0.00,352.00 C 288.00,344.80, 280.80,352.00, 272.00,352.00 M 256.00,32.00L 160.00,32.00 l0.00,32.00 l 96.00,0.00 L 256.00,32.00 z M 256.00,256.00L 160.00,256.00 L 160.00,288.00 l 96.00,0.00 L 256.00,256.00 z" data-tags="synergy-courses" />
<glyph unicode="&#xe04d;" d="M 0.032,287.968L 0.032-32.00L 448.00-32.00L 448.00,191.968L 416.00,191.968L 416.00,22.592L 331.328,107.264L 308.672,84.704L 393.376-0.032L 54.624-0.032L 139.328,84.704L 116.704,107.264L 32.032,22.592L 32.032,245.44L 224.00,108.32L 287.04,157.952L 268.00,180.992L 224.00,147.616L 72.352,255.968L 288.00,255.968L 288.00,287.968 zM 512.00,351.968L 426.496,351.968L 400.00,436.992L 373.568,351.968L 288.00,351.968L 357.248,305.312L 320.00,223.968L 400.00,274.24L 480.00,223.968L 442.816,305.312 z" data-tags="synergy-newmail" />
<glyph unicode="&#xe005;" d="M 464.00,480.00l-416.00,0.00 C 21.536,480.00,0.00,458.432,0.00,432.00l0.00-416.00 C0.00-10.496, 21.536-32.00, 48.00-32.00l 416.00,0.00 
		c 26.496,0.00, 48.00,21.504, 48.00,48.00l0.00,416.00 C 512.00,458.432, 490.496,480.00, 464.00,480.00 M 480.00,16.00c0.00-8.80-7.20-16.00-16.00-16.00l-416.00,0.00 C 39.20,0.00, 32.00,7.20, 32.00,16.00l0.00,416.00 
		C 32.00,440.768, 39.20,448.00, 48.00,448.00l 416.00,0.00 C 472.80,448.00, 480.00,440.768, 480.00,432.00L 480.00,16.00 zM 160.00,128.00L 128.00,160.00L 96.00,128.00L 160.00,64.00L 256.032,160.00L 224.00,192.00 zM 160.00,320.00L 128.00,352.00L 96.00,320.00L 160.00,256.00L 256.032,352.00L 224.00,384.00 zM 288.00,320.00L 416.00,320.00L 416.00,288.00L 288.00,288.00zM 288.00,128.032L 416.00,128.032L 416.00,96.00L 288.00,96.00z" data-tags="synergy-tests" />
<glyph unicode="&#xe01d;" d="M 256.00,320.00c0.00,80.00-178.048,96.00-256.00,96.00l0.00-352.00 l 16.00,0.00 c 5.632,0.00, 10.688-0.032, 16.00-0.064L 32.00,32.00 c 64.00,0.00, 192.00,19.20, 192.00-32.00
		l 64.00,0.00 c0.00,51.20, 128.00,32.00, 192.00,32.00l0.00,31.936 c 5.312,0.00, 10.432,0.064, 16.00,0.064L 512.00,64.00 L 512.00,416.00 C 434.112,416.00, 256.00,400.00, 256.00,320.00 M 224.00,81.76c-46.688,27.552-134.176,30.016-192.00,30.24L 32.00,384.00 
		c 15.936-0.16, 30.304-0.80, 43.808-1.728l 7.936-0.48l 2.944-0.224c 62.944-4.512, 129.632-17.696, 136.32-55.456L 224.00,320.00L 224.00,81.76 z M 480.00,112.00
		c-57.824-0.256-145.312-2.688-192.00-30.24L 288.00,320.00 c0.00,21.184, 33.824,62.432, 192.00,64.00L 480.00,112.00 z" data-tags="synergy-lessons" />
<glyph unicode="&#xf0c3;" d="M 436.286,66.286q 16.00-25.429 6.143-43.571t-40.143-18.143l-329.143,0.00 q-30.286,0.00 -40.143,18.143t 6.143,43.571l 143.714,226.571l0.00,114.00 l-18.286,0.00 q-7.429,0.00 -12.857,5.429t-5.429,12.857t 5.429,12.857t 12.857,5.429l 146.286,0.00 q 7.429,0.00 12.857-5.429t 5.429-12.857t-5.429-12.857t-12.857-5.429l-18.286,0.00 l0.00-114.00 zM 213.714,273.429l-77.714-122.571l 203.429,0.00 l-77.714,122.571l-5.714,8.857l0.00,10.571 l0.00,114.00 l-36.571,0.00 l0.00-114.00 l0.00-10.571 z" horiz-adv-x="475" data-tags="synergy-activities" />
<glyph unicode="&#xe008;" d="M 385.758,320.00c 9.063,6.44, 17.756,13.608, 25.722,21.574c 16.701,16.701, 27.873,37.25, 31.456,57.861
	c 3.929,22.593-1.836,43.57-15.815,57.55c-11.15,11.149-26.255,17.043-43.682,17.043c-24.816,0.00-50.961-11.912-71.73-32.681
	c-33.238-33.238-52.613-79.119-63.038-111.861c-7.72,32.901-23.103,77.322-53.009,107.229C 179.615,452.761, 159.105,461.00, 139.739,461.00
	c-15.827,0.00-30.89-5.502-42.13-16.743c-24.993-24.994-21.616-68.893, 7.543-98.052c 10.396-10.396, 22.549-19.031, 35.36-26.206L 32.00,319.999 l0.00-128.00 
	l 32.00,0.00 l0.00-224.00 l 384.00,0.00 L 448.00,192.00 l 32.00,0.00 L 480.00,320.00 L 385.758,320.00 z M 337.163,415.891c 13.862,13.862, 31.161,22.137, 46.275,22.137c 5.35,0.00, 12.854-1.127, 18.225-6.499
	c 13.015-13.014, 5.706-43.154-15.64-64.499c-21.973-21.973-51.53-37.084-77.216-47.03l-25.336,0.00 
	C 292.755,348.774, 309.50,388.228, 337.163,415.891z M 116.967,399.555c-0.351,4.56-0.025,13.124, 6.098,19.247
	C 128.187,423.924, 134.959,425.00, 139.739,425.00l0.00,0.00 c 10.629,0.00, 21.734-5.008, 30.466-13.74c 16.936-16.936, 30.883-43.886, 40.334-77.938
	c 0.255-0.92, 0.504-1.835, 0.748-2.743c-0.908,0.243-1.823,0.492-2.743,0.748c-34.052,9.452-61.001,23.399-77.937,40.335
	C 122.693,379.575, 117.722,389.742, 116.967,399.555z M 224.00,0.00L 96.00,0.00 L 96.00,208.00 l 128.00,0.00 L 224.00,0.00 z M 224.00,224.00L 64.00,224.00 l0.00,64.00 l 160.00,0.00 L 224.00,224.00 z M 416.00,0.00L 288.00,0.00 L 288.00,208.00 l 128.00,0.00 L 416.00,0.00 z
	 M 448.00,224.00L 288.00,224.00 l0.00,64.00 l 160.00,0.00 L 448.00,224.00 z" data-tags="synergy-products" />
<glyph unicode="&#xe00a;" d="M 256.00,416.00C 132.288,416.00, 32.00,315.712, 32.00,192.00s 100.288-224.00, 224.00-224.00s 224.00,100.288, 224.00,224.00S 379.712,416.00, 256.00,416.00z M 256.00,12.00
	c-99.412,0.00-180.00,80.589-180.00,180.00c0.00,99.412, 80.588,180.00, 180.00,180.00c 99.411,0.00, 180.00-80.588, 180.00-180.00C 436.00,92.589, 355.411,12.00, 256.00,12.00z
	 M 467.392,336.413C 475.413,350.439, 480.00,366.684, 480.00,384.00c0.00,53.02-42.98,96.00-96.00,96.00c-30.909,0.00-58.401-14.611-75.96-37.298
	C 373.982,429.084, 430.643,390.103, 467.392,336.413z M 203.96,442.702C 186.402,465.389, 158.909,480.00, 128.00,480.00C 74.98,480.00, 32.00,437.02, 32.00,384.00
	c0.00-17.316, 4.587-33.561, 12.608-47.587C 81.358,390.103, 138.019,429.084, 203.96,442.702z M 224.00,320.00l 32.00,0.00 l0.00-160.00 l-32.00,0.00 L 224.00,320.00 z M 256.00,192.00l 96.00,0.00 l0.00-32.00 l-96.00,0.00 
	L 256.00,192.00 z" data-tags="synergy-clock" />
<glyph unicode="&#xe00c;" d="M 256.00,384.00C 144.341,384.00, 47.559,318.979,0.00,224.00c 47.559-94.979, 144.341-160.00, 256.00-160.00c 111.657,0.00, 208.439,65.021, 256.00,160.00
	C 464.442,318.979, 367.657,384.00, 256.00,384.00z M 382.225,299.148c 30.081-19.187, 55.571-44.887, 74.717-75.148
	c-19.146-30.261-44.637-55.961-74.718-75.149C 344.427,124.743, 300.779,112.00, 256.00,112.00c-44.78,0.00-88.428,12.743-126.225,36.852
	C 99.695,168.038, 74.205,193.738, 55.058,224.00c 19.146,30.262, 44.637,55.962, 74.717,75.148c 1.959,1.25, 3.938,2.461, 5.929,3.65
	C 130.725,289.134, 128.00,274.387, 128.00,259.00c0.00-70.692, 57.308-128.00, 128.00-128.00s 128.00,57.308, 128.00,128.00c0.00,15.387-2.725,30.134-7.704,43.799
	C 378.286,301.61, 380.265,300.398, 382.225,299.148z M 256.00,275.00c0.00-26.51-21.49-48.00-48.00-48.00s-48.00,21.49-48.00,48.00s 21.49,48.00, 48.00,48.00
	S 256.00,301.51, 256.00,275.00z" data-tags="synergy-view" />
<glyph unicode="&#x20;" horiz-adv-x="256" />
<glyph class="hidden" unicode="&#xf000;" d="M0,480L 512 -32L0 -32 z" horiz-adv-x="0" />
</font>
</defs>
</svg>
