<?xml version="1.0" encoding="UTF-8" standalone="no"?>
<svg width="400" height="400" version="1.1" xmlns:xlink="http://www.w3.org/1999/xlink" xmlns="http://www.w3.org/2000/svg"><defs></defs>
<rect width="100%" height="100%" fill="#fff" stroke-width="0px"/>
<text font-size="12px" font-family="sans-serif" font-weight="normal" text-anchor="middle" fill="black" x="32" y="200" transform="rotate(270,32,200)">percent covered</text>
<path d="M65 322h315M65 291.5h315M65 261h315M65 230.5h315M65 200h315M65 169.5h315M65 139h315M65 108.5h315M65 78h315M65 47.5h315M65 17h315" stroke="#666"/>
<path d="M65 325v-3M380 325v-3M62 322h3M62 291.5h3M62 261h3M62 230.5h3M62 200h3M62 169.5h3M62 139h3M62 108.5h3M62 78h3M62 47.5h3M62 17h3" stroke-width="1px" stroke="#333"/>
<g stroke-width="2px" stroke="#333"><path d="M63 322h319"/>
<path d="M65 15v309"/>
</g>
<g font-size="10px" font-family="Georgia" fill="#333"><g text-anchor="end"><text x="60" y="325">0</text>
<text x="60" y="294.5">10</text>
<text x="60" y="264">20</text>
<text x="60" y="233.5">30</text>
<text x="60" y="203">40</text>
<text x="60" y="172.5">50</text>
<text x="60" y="142">60</text>
<text x="60" y="111.5">70</text>
<text x="60" y="81">80</text>
<text x="60" y="50.5">90</text>
<text x="60" y="20">100</text>
</g>
<g text-anchor="end"><text y="334" x="225.5" transform="rotate(-90,222.5,331)">Grades: 5-6</text>
</g>
</g>
</svg>
