<?xml version="1.0" encoding="UTF-8" standalone="no"?>
<svg width="400" height="400" version="1.1" xmlns:xlink="http://www.w3.org/1999/xlink" xmlns="http://www.w3.org/2000/svg"><defs></defs>
<rect width="100%" height="100%" fill="#fff" stroke-width="0px"/>
<text font-size="12px" font-family="sans-serif" font-weight="normal" text-anchor="middle" fill="black" x="32" y="200" transform="rotate(270,32,200)">percent covered</text>
<path d="M65 346h315M65 313.1h315M65 280.2h315M65 247.3h315M65 214.4h315M65 181.5h315M65 148.6h315M65 115.7h315M65 82.8h315M65 49.9h315M65 17h315" stroke="#666"/>
<path d="M65 349v-3M170 349v-3M275 349v-3M380 349v-3M62 346h3M62 313.1h3M62 280.2h3M62 247.3h3M62 214.4h3M62 181.5h3M62 148.6h3M62 115.7h3M62 82.8h3M62 49.9h3M62 17h3" stroke-width="1px" stroke="#333"/>
<g stroke-width="2px" stroke="#333"><path d="M63 346h319"/>
<path d="M65 15v333"/>
</g>
<g font-size="10px" font-family="Georgia" fill="#333"><g text-anchor="end"><text x="60" y="349">0</text>
<text x="60" y="316.1">10</text>
<text x="60" y="283.2">20</text>
<text x="60" y="250.3">30</text>
<text x="60" y="217.4">40</text>
<text x="60" y="184.5">50</text>
<text x="60" y="151.6">60</text>
<text x="60" y="118.7">70</text>
<text x="60" y="85.8">80</text>
<text x="60" y="52.9">90</text>
<text x="60" y="20">100</text>
</g>
<g text-anchor="end"><text y="358" x="120.5" transform="rotate(-90,117.5,355)">Grade 3</text>
<text y="358" x="225.5" transform="rotate(-90,222.5,355)">Grade 5</text>
<text y="358" x="330.5" transform="rotate(-90,327.5,355)">Grade 8</text>
</g>
</g>
</svg>
