<?xml version="1.0" encoding="UTF-8" standalone="no"?>
<svg width="400" height="400" version="1.1" xmlns:xlink="http://www.w3.org/1999/xlink" xmlns="http://www.w3.org/2000/svg"><defs></defs>
<rect width="100%" height="100%" fill="#fff" stroke-width="0px"/>
<text font-size="12px" font-family="sans-serif" font-weight="normal" text-anchor="middle" fill="black" x="32" y="200" transform="rotate(270,32,200)">percent covered</text>
<path d="M65 340h315M65 307.7h315M65 275.4h315M65 243.1h315M65 210.8h315M65 178.5h315M65 146.2h315M65 113.9h315M65 81.6h315M65 49.3h315M65 17h315" stroke="#666"/>
<path d="M65 343v-3M380 343v-3M62 340h3M62 307.7h3M62 275.4h3M62 243.1h3M62 210.8h3M62 178.5h3M62 146.2h3M62 113.9h3M62 81.6h3M62 49.3h3M62 17h3" stroke-width="1px" stroke="#333"/>
<g stroke-width="2px" stroke="#333"><path d="M63 340h319"/>
<path d="M65 15v327"/>
</g>
<g font-size="10px" font-family="Georgia" fill="#333"><g text-anchor="end"><text x="60" y="343">0</text>
<text x="60" y="310.7">10</text>
<text x="60" y="278.4">20</text>
<text x="60" y="246.1">30</text>
<text x="60" y="213.8">40</text>
<text x="60" y="181.5">50</text>
<text x="60" y="149.2">60</text>
<text x="60" y="116.9">70</text>
<text x="60" y="84.6">80</text>
<text x="60" y="52.3">90</text>
<text x="60" y="20">100</text>
</g>
<g text-anchor="end"><text y="352" x="225.5" transform="rotate(-90,222.5,349)">Grade 10</text>
</g>
</g>
</svg>
