<?xml version="1.0" encoding="UTF-8" standalone="no"?>
<svg width="400" height="400" version="1.1" xmlns:xlink="http://www.w3.org/1999/xlink" xmlns="http://www.w3.org/2000/svg"><defs></defs>
<rect width="100%" height="100%" fill="#fff" stroke-width="0px"/>
<text font-size="12px" font-family="sans-serif" font-weight="normal" text-anchor="middle" fill="black" x="32" y="200" transform="rotate(270,32,200)">percent covered</text>
<path d="M65 304h315M65 275.3h315M65 246.6h315M65 217.9h315M65 189.2h315M65 160.5h315M65 131.8h315M65 103.1h315M65 74.4h315M65 45.7h315M65 17h315" stroke="#666"/>
<path d="M65 307v-3M380 307v-3M62 304h3M62 275.3h3M62 246.6h3M62 217.9h3M62 189.2h3M62 160.5h3M62 131.8h3M62 103.1h3M62 74.4h3M62 45.7h3M62 17h3" stroke-width="1px" stroke="#333"/>
<g stroke-width="2px" stroke="#333"><path d="M63 304h319"/>
<path d="M65 15v291"/>
</g>
<g font-size="10px" font-family="Georgia" fill="#333"><g text-anchor="end"><text x="60" y="307">0</text>
<text x="60" y="278.3">10</text>
<text x="60" y="249.6">20</text>
<text x="60" y="220.9">30</text>
<text x="60" y="192.2">40</text>
<text x="60" y="163.5">50</text>
<text x="60" y="134.8">60</text>
<text x="60" y="106.1">70</text>
<text x="60" y="77.4">80</text>
<text x="60" y="48.7">90</text>
<text x="60" y="20">100</text>
</g>
<g text-anchor="end"><text y="316" x="225.5" transform="rotate(-90,222.5,313)">Four-Year-Olds</text>
</g>
</g>
</svg>
