<?xml version="1.0" encoding="UTF-8" standalone="no"?>
<svg width="400" height="400" version="1.1" xmlns:xlink="http://www.w3.org/1999/xlink" xmlns="http://www.w3.org/2000/svg"><defs></defs>
<rect width="100%" height="100%" fill="#fff" stroke-width="0px"/>
<text font-size="12px" font-family="sans-serif" font-weight="normal" text-anchor="middle" fill="black" x="32" y="200" transform="rotate(270,32,200)">percent covered</text>
<path d="M65 358h315M65 323.9h315M65 289.8h315M65 255.7h315M65 221.6h315M65 187.5h315M65 153.4h315M65 119.3h315M65 85.2h315M65 51.1h315M65 17h315" stroke="#666"/>
<path d="M65 361v-3M380 361v-3M62 358h3M62 323.9h3M62 289.8h3M62 255.7h3M62 221.6h3M62 187.5h3M62 153.4h3M62 119.3h3M62 85.2h3M62 51.1h3M62 17h3" stroke-width="1px" stroke="#333"/>
<g stroke-width="2px" stroke="#333"><path d="M63 358h319"/>
<path d="M65 15v345"/>
</g>
<g font-size="10px" font-family="Georgia" fill="#333"><g text-anchor="end"><text x="60" y="361">0</text>
<text x="60" y="326.9">10</text>
<text x="60" y="292.8">20</text>
<text x="60" y="258.7">30</text>
<text x="60" y="224.6">40</text>
<text x="60" y="190.5">50</text>
<text x="60" y="156.4">60</text>
<text x="60" y="122.3">70</text>
<text x="60" y="88.2">80</text>
<text x="60" y="54.1">90</text>
<text x="60" y="20">100</text>
</g>
<g text-anchor="end"><text y="370" x="225.5" transform="rotate(-90,222.5,367)">Adult</text>
</g>
</g>
</svg>
