<?xml version="1.0" encoding="UTF-8" standalone="no"?>
<svg width="400" height="400" version="1.1" xmlns:xlink="http://www.w3.org/1999/xlink" xmlns="http://www.w3.org/2000/svg"><defs></defs>
<rect width="100%" height="100%" fill="#fff" stroke-width="0px"/>
<text font-size="12px" font-family="sans-serif" font-weight="normal" text-anchor="middle" fill="black" x="32" y="200" transform="rotate(270,32,200)">percent covered</text>
<path d="M65 328h315M65 296.9h315M65 265.8h315M65 234.7h315M65 203.6h315M65 172.5h315M65 141.4h315M65 110.3h315M65 79.2h315M65 48.1h315M65 17h315" stroke="#666"/>
<path d="M65 331v-3M222.5 331v-3M380 331v-3M62 328h3M62 296.9h3M62 265.8h3M62 234.7h3M62 203.6h3M62 172.5h3M62 141.4h3M62 110.3h3M62 79.2h3M62 48.1h3M62 17h3" stroke-width="1px" stroke="#333"/>
<g stroke-width="2px" stroke="#333"><path d="M63 328h319"/>
<path d="M65 15v315"/>
</g>
<g font-size="10px" font-family="Georgia" fill="#333"><g text-anchor="end"><text x="60" y="331">0</text>
<text x="60" y="299.9">10</text>
<text x="60" y="268.8">20</text>
<text x="60" y="237.7">30</text>
<text x="60" y="206.6">40</text>
<text x="60" y="175.5">50</text>
<text x="60" y="144.4">60</text>
<text x="60" y="113.3">70</text>
<text x="60" y="82.2">80</text>
<text x="60" y="51.1">90</text>
<text x="60" y="20">100</text>
</g>
<g text-anchor="end"><text y="340" x="146.75" transform="rotate(-90,143.75,337)">Grade Five</text>
<text y="340" x="304.25" transform="rotate(-90,301.25,337)">Grade Six</text>
</g>
</g>
</svg>
