<?xml version="1.0" encoding="UTF-8" standalone="no"?>
<svg width="400" height="400" version="1.1" xmlns:xlink="http://www.w3.org/1999/xlink" xmlns="http://www.w3.org/2000/svg"><defs></defs>
<rect width="100%" height="100%" fill="#fff" stroke-width="0px"/>
<text font-size="12px" font-family="sans-serif" font-weight="normal" text-anchor="middle" fill="black" x="32" y="200" transform="rotate(270,32,200)">percent covered</text>
<path d="M65 136h315M65 124.1h315M65 112.2h315M65 100.3h315M65 88.4h315M65 76.5h315M65 64.6h315M65 52.7h315M65 40.8h315M65 28.9h315M65 17h315" stroke="#666"/>
<path d="M65 139v-3M380 139v-3M62 136h3M62 124.1h3M62 112.2h3M62 100.3h3M62 88.4h3M62 76.5h3M62 64.6h3M62 52.7h3M62 40.8h3M62 28.9h3M62 17h3" stroke-width="1px" stroke="#333"/>
<g stroke-width="2px" stroke="#333"><path d="M63 136h319"/>
<path d="M65 15v123"/>
</g>
<g font-size="10px" font-family="Georgia" fill="#333"><g text-anchor="end"><text x="60" y="139">0</text>
<text x="60" y="127.1">10</text>
<text x="60" y="115.2">20</text>
<text x="60" y="103.3">30</text>
<text x="60" y="91.4">40</text>
<text x="60" y="79.5">50</text>
<text x="60" y="67.6">60</text>
<text x="60" y="55.7">70</text>
<text x="60" y="43.8">80</text>
<text x="60" y="31.9">90</text>
<text x="60" y="20">100</text>
</g>
<g text-anchor="end"><text y="148" x="225.5" transform="rotate(-90,222.5,145)">Prekindergarten for Four Year Old Children</text>
</g>
</g>
</svg>
