<?xml version="1.0" standalone="no"?><!DOCTYPE svg PUBLIC "-//W3C//DTD SVG 1.1//EN" "http://www.w3.org/Graphics/SVG/1.1/DTD/svg11.dtd"><svg id="synergy.dragBoxRight" viewBox="0 0 410 40" style="background-color:#e6e6e6" version="1.1"	xmlns="http://www.w3.org/2000/svg" xmlns:xlink="http://www.w3.org/1999/xlink" xml:space="preserve"	x="0px" y="0px" width="410px" height="40px">	<defs>		<linearGradient id="gradient1" x1="14.3902%" y1="8.125%" x2="14.3902%" y2="93.9584%">			<stop stop-color="#ffffff" stop-opacity="1" offset="0%"/>			<stop stop-color="#f0f0f0" stop-opacity="1" offset="100%"/>		</linearGradient>		<filter id="filter1" x="-100%" y="-100%" width="300%" height="300%">			<feOffset result="out" in="SourceGraphic" dx="-1.4142" dy="-1.4142"/>			<feColorMatrix result="out" in="out" type="matrix" values="0 0 0 0 0  0 0 0 0 0  0 0 0 0 0  0 0 0 0.1804 0"/>			<feGaussianBlur result="out" in="out" stdDeviation="0"/>			<feBlend in="SourceGraphic" in2="out" mode="normal" result="Drop_Shadow1"/>		</filter>		<filter id="filter2" x="-100%" y="-100%" width="300%" height="300%">			<feOffset result="out" in="SourceGraphic" dx="-1.4142" dy="-1.4142"/>			<feColorMatrix result="out" in="out" type="matrix" values="0 0 0 0 0  0 0 0 0 0  0 0 0 0 0  0 0 0 0.1804 0"/>			<feGaussianBlur result="out" in="out" stdDeviation="0"/>			<feBlend in="SourceGraphic" in2="out" mode="normal" result="Drop_Shadow2"/>		</filter>		<filter id="filter3" x="-100%" y="-100%" width="300%" height="300%">			<feOffset result="out" in="SourceGraphic" dx="-1.4142" dy="-1.4142"/>			<feColorMatrix result="out" in="out" type="matrix" values="0 0 0 0 0  0 0 0 0 0  0 0 0 0 0  0 0 0 0.1804 0"/>			<feGaussianBlur result="out" in="out" stdDeviation="0"/>			<feBlend in="SourceGraphic" in2="out" mode="normal" result="Drop_Shadow3"/>		</filter>		<filter id="filter4" x="-100%" y="-100%" width="300%" height="300%">			<feOffset result="out" in="SourceGraphic" dx="-1.4142" dy="-1.4142"/>			<feColorMatrix result="out" in="out" type="matrix" values="0 0 0 0 0  0 0 0 0 0  0 0 0 0 0  0 0 0 0.1804 0"/>			<feGaussianBlur result="out" in="out" stdDeviation="0"/>			<feBlend in="SourceGraphic" in2="out" mode="normal" result="Drop_Shadow4"/>		</filter>		<filter id="filter5" x="-100%" y="-100%" width="300%" height="300%">			<feOffset result="out" in="SourceGraphic" dx="-1.4142" dy="-1.4142"/>			<feColorMatrix result="out" in="out" type="matrix" values="0 0 0 0 0  0 0 0 0 0  0 0 0 0 0  0 0 0 0.1804 0"/>			<feGaussianBlur result="out" in="out" stdDeviation="0"/>			<feBlend in="SourceGraphic" in2="out" mode="normal" result="Drop_Shadow5"/>		</filter>		<filter id="filter6" x="-100%" y="-100%" width="300%" height="300%">			<feOffset result="out" in="SourceGraphic" dx="-1.4142" dy="-1.4142"/>			<feColorMatrix result="out" in="out" type="matrix" values="0 0 0 0 0  0 0 0 0 0  0 0 0 0 0  0 0 0 0.1804 0"/>			<feGaussianBlur result="out" in="out" stdDeviation="0"/>			<feBlend in="SourceGraphic" in2="out" mode="normal" result="Drop_Shadow6"/>		</filter>		<filter id="filter7" x="-100%" y="-100%" width="300%" height="300%">			<feOffset result="out" in="SourceGraphic" dx="-1.4142" dy="-1.4142"/>			<feColorMatrix result="out" in="out" type="matrix" values="0 0 0 0 0  0 0 0 0 0  0 0 0 0 0  0 0 0 0.1804 0"/>			<feGaussianBlur result="out" in="out" stdDeviation="0"/>			<feBlend in="SourceGraphic" in2="out" mode="normal" result="Drop_Shadow7"/>		</filter>		<filter id="filter8" x="-100%" y="-100%" width="300%" height="300%">			<feOffset result="out" in="SourceGraphic" dx="-1.4142" dy="-1.4142"/>			<feColorMatrix result="out" in="out" type="matrix" values="0 0 0 0 0  0 0 0 0 0  0 0 0 0 0  0 0 0 0.1804 0"/>			<feGaussianBlur result="out" in="out" stdDeviation="0"/>			<feBlend in="SourceGraphic" in2="out" mode="normal" result="Drop_Shadow8"/>		</filter>	</defs>	<g id="Layer%201">		<rect x="0" y="-0.5" width="410" height="40" fill="url(#gradient1)"/>		<rect filter="url(#filter1)" x="12.5" y="9.3037" width="4" height="4.0245" fill="#ffffff"/>		<rect filter="url(#filter2)" x="12.5" y="15.3405" width="4" height="4.0245" fill="#ffffff"/>		<rect filter="url(#filter3)" x="12.5" y="21.3773" width="4" height="4.0245" fill="#ffffff"/>		<rect filter="url(#filter4)" x="12.5" y="27.4141" width="4" height="4.0245" fill="#ffffff"/>		<rect filter="url(#filter5)" x="18.5" y="9.3037" width="4" height="4.0245" fill="#ffffff"/>		<rect filter="url(#filter6)" x="18.5" y="15.3405" width="4" height="4.0245" fill="#ffffff"/>		<rect filter="url(#filter7)" x="18.5" y="21.3773" width="4" height="4.0245" fill="#ffffff"/>		<rect filter="url(#filter8)" x="18.5" y="27.4141" width="4" height="4.0245" fill="#ffffff"/>		<path id="Line" d="M 409.5 0.5 L 409.5 39.5 " stroke="#d9d9d9" stroke-width="1" fill="none"/>		<path id="Line2" d="M 0.5 0.5 L 0.5 39.5 " stroke="#d9d9d9" stroke-width="1" fill="none"/>		<path id="Line3" d="M 409.5313 39.5 L 0 39.5 " stroke="#d9d9d9" stroke-width="1" fill="none"/>		<path id="Line4" d="M 369.5 0.5 L 369.5 39.5 " stroke="#d9d9d9" stroke-width="1" fill="none"/>		<path id="Line5" d="M 370.5 0.5 L 370.5 39.5 " stroke="#ffffff" stroke-width="1" fill="none"/>		<path d="M 391.3772 13.7352 L 387.6226 13.7352 L 387.6222 13.4373 C 387.6228 13.1846 387.8361 12.9801 388.0989 12.9799 L 390.9008 12.9799 C 391.1637 12.9801 391.377 13.1846 391.3772 13.4373 L 391.3772 13.7352 L 391.3772 13.7352 ZM 394.2947 13.7352 L 392.3978 13.7352 L 392.3978 13.4373 C 392.3978 12.6433 391.7278 12.0004 390.9008 12 L 388.0989 12 C 387.272 12.0004 386.6023 12.6433 386.6021 13.4373 L 386.6021 13.7352 L 384.7053 13.7352 C 384.3159 13.7352 384 14.0386 384 14.4126 L 384 16.2061 L 395 16.2061 L 395 14.4126 C 395 14.0386 394.6843 13.7352 394.2947 13.7352 L 394.2947 13.7352 ZM 386.8313 18.8762 C 386.8313 18.6057 387.0598 18.3862 387.3413 18.3862 C 387.6232 18.3862 387.8521 18.6057 387.8521 18.8762 L 387.8521 24.0372 C 387.8521 24.3077 387.6232 24.5271 387.3413 24.5271 C 387.0598 24.5271 386.8313 24.3077 386.8313 24.0372 L 386.8313 18.8762 ZM 388.9895 18.8762 C 388.9895 18.6058 389.2184 18.3862 389.4999 18.3862 C 389.7817 18.3862 390.0105 18.6058 390.0105 18.8762 L 390.0105 24.0372 C 390.0105 24.3076 389.7817 24.5271 389.4999 24.5271 C 389.2184 24.5271 388.9895 24.3076 388.9895 24.0372 L 388.9895 18.8762 ZM 391.1484 18.8762 C 391.1484 18.6057 391.377 18.3862 391.6587 18.3862 C 391.9402 18.3862 392.1687 18.6057 392.1687 18.8762 L 392.1687 24.0372 C 392.1687 24.3076 391.9402 24.5272 391.6587 24.5272 C 391.377 24.5272 391.1484 24.3076 391.1484 24.0372 L 391.1484 18.8762 L 391.1484 18.8762 ZM 385.1373 26 L 393.8627 26 L 393.8627 17.0925 L 385.1373 17.0925 L 385.1373 26 L 385.1373 26 Z" fill="#bfbfbf"/>	</g></svg>