<?xml version="1.0" standalone="no"?>
<!-- Generator: Adobe Fireworks 10, Export SVG Extension by Aaron Beall (http://fireworks.abeall.com) . Version: 0.6.1  -->
<!DOCTYPE svg PUBLIC "-//W3C//DTD SVG 1.1//EN" "http://www.w3.org/Graphics/SVG/1.1/DTD/svg11.dtd">
<svg id="Untitled-Page%201" viewBox="0 0 61 17" style="background-color:#ffffff00" version="1.1"
	xmlns="http://www.w3.org/2000/svg" xmlns:xlink="http://www.w3.org/1999/xlink" xml:space="preserve"
	x="0px" y="0px" width="61px" height="17px"
>
	<g id="Layer%201">
		<g id="logo%20light%20blue">
			<g>
				<path d="M 6.5529 5.1091 C 7.3436 5.1091 7.9009 4.9577 8.2249 4.6551 C 8.5487 4.3525 8.7119 3.9366 8.7119 3.4088 C 8.7119 2.8953 8.5654 2.5164 8.2737 2.2721 C 7.9819 2.0291 7.408 1.9064 6.5529 1.9064 L 2.1575 1.9064 L 2.1575 5.1091 L 6.5529 5.1091 L 6.5529 5.1091 ZM 0.3808 0.9758 C 0.3141 0.89 0.1891 0.8471 0.0045 0.8471 L 0.0045 0.61 L 6.6053 0.61 C 7.8997 0.61 8.8286 0.8507 9.3918 1.3297 C 9.9539 1.8099 10.2361 2.4842 10.2361 3.3516 C 10.2361 4.3251 9.9587 5.0769 9.405 5.6083 C 8.85 6.1397 7.9402 6.4054 6.6755 6.4054 L 2.1575 6.4054 L 2.1575 10.2586 C 2.1575 10.4064 2.1898 10.5231 2.2563 10.6101 C 2.3231 10.6971 2.4481 10.74 2.6339 10.74 L 2.6339 10.9807 L 0.0045 10.9807 L 0.0045 10.7435 C 0.1891 10.7435 0.3141 10.7018 0.3808 10.6161 C 0.4475 10.5303 0.4809 10.4159 0.4809 10.2705 L 0.4809 1.3202 C 0.4809 1.176 0.4475 1.0616 0.3808 0.9758 L 0.3808 0.9758 Z" fill="#88abc2"/>
				<path d="M 11.3234 10.7424 C 11.508 10.7424 11.6331 10.6995 11.6997 10.6137 C 11.7652 10.5279 11.7986 10.4111 11.7986 10.2658 L 11.7986 1.2487 C 11.7986 1.1033 11.7652 0.9877 11.6997 0.9019 C 11.6331 0.8162 11.508 0.7721 11.3234 0.7721 L 11.3234 0.5338 L 13.9504 0.5338 L 13.9504 0.7721 C 13.7658 0.7721 13.6407 0.8162 13.574 0.9019 C 13.5074 0.9877 13.4752 1.1033 13.4752 1.2487 L 13.4752 10.2658 C 13.4752 10.4111 13.5074 10.5279 13.574 10.6137 C 13.6407 10.6995 13.7658 10.7424 13.9504 10.7424 L 13.9504 10.9807 L 11.3234 10.9807 L 11.3234 10.7424 L 11.3234 10.7424 Z" fill="#88abc2"/>
				<path d="M 18.7542 10.7424 C 18.9388 10.7424 19.0638 10.6995 19.1306 10.6137 C 19.196 10.5279 19.2293 10.4111 19.2293 10.2646 L 19.2293 1.8301 L 15.9009 1.8301 C 15.6497 1.8301 15.4711 1.867 15.3651 1.9397 C 15.2592 2.0124 15.2068 2.147 15.2068 2.3448 L 14.9698 2.3448 L 14.9698 0 L 15.2068 0 C 15.2068 0.3563 15.4377 0.5338 15.9009 0.5338 L 24.2357 0.5338 C 24.6976 0.5338 24.9287 0.3563 24.9287 0 L 25.1669 0 L 25.1669 2.3448 L 24.9287 2.3448 C 24.9287 2.147 24.8751 2.0124 24.7703 1.9397 C 24.6643 1.867 24.4858 1.8301 24.2357 1.8301 L 20.9061 1.8301 L 20.9061 10.2646 C 20.9061 10.4111 20.9382 10.5279 21.0049 10.6137 C 21.0704 10.6995 21.1954 10.7424 21.3812 10.7424 L 21.3812 10.9807 L 18.7542 10.9807 L 18.7542 10.7424 L 18.7542 10.7424 Z" fill="#88abc2"/>
				<path d="M 26.8674 7.89 C 26.8269 7.9829 26.8078 8.0687 26.8078 8.1473 C 26.8078 8.3332 26.9233 8.525 27.1544 8.7228 C 27.3854 8.9206 27.6891 9.1029 28.0653 9.2673 C 28.4417 9.4329 28.868 9.5688 29.3443 9.6748 C 29.8195 9.7808 30.3018 9.8333 30.79 9.8333 C 32.0452 9.8333 32.9526 9.645 33.5146 9.2685 C 34.0767 8.892 34.3578 8.4083 34.3578 7.8173 C 34.3578 7.5349 34.2886 7.299 34.1505 7.1107 C 34.0125 6.9225 33.8231 6.7783 33.5801 6.6782 C 33.3372 6.5781 33.0562 6.5067 32.7347 6.4661 C 32.4131 6.4256 32.0677 6.4054 31.701 6.4054 C 31.0973 6.4054 30.4578 6.403 29.7825 6.3958 C 29.1062 6.3887 28.4869 6.3041 27.9225 6.1397 C 27.358 5.9753 26.8912 5.7036 26.5245 5.3223 C 26.1577 4.9411 25.9742 4.3763 25.9742 3.628 C 25.9742 3.1562 26.1052 2.7261 26.3684 2.3389 C 26.6304 1.9516 26.9889 1.6204 27.4426 1.344 C 27.8951 1.0688 28.431 0.8519 29.049 0.6946 C 29.6671 0.5374 30.3375 0.4575 31.0603 0.4575 C 31.6248 0.4575 32.1142 0.4968 32.5286 0.5755 C 32.9431 0.6541 33.3002 0.7399 33.6027 0.8317 C 33.9052 0.9234 34.1553 1.008 34.353 1.0866 C 34.5507 1.1653 34.715 1.2034 34.8472 1.2034 C 34.9925 1.2034 35.0972 1.1784 35.1639 1.1259 C 35.2294 1.0735 35.2961 1.0151 35.3628 0.9484 L 35.5998 1.0473 L 34.5101 3.3195 L 34.2816 3.1812 L 34.2816 2.9239 C 34.2816 2.8309 34.2029 2.719 34.0481 2.5867 C 33.8921 2.4544 33.6718 2.3258 33.3872 2.1995 C 33.1014 2.0744 32.762 1.9683 32.3666 1.8825 C 31.9713 1.7967 31.5403 1.7539 31.0734 1.7539 C 30.0231 1.7539 29.1895 1.923 28.5739 2.259 C 27.9582 2.5962 27.6509 3.0371 27.6509 3.5804 C 27.6509 3.827 27.7188 4.0248 27.8569 4.1737 C 27.9951 4.3239 28.1844 4.4406 28.4274 4.524 C 28.6703 4.6086 28.9525 4.6634 29.274 4.6897 C 29.5956 4.7159 29.9397 4.7278 30.3077 4.7278 C 30.9246 4.7278 31.5664 4.7385 32.2357 4.7576 C 32.9049 4.7778 33.5217 4.8815 34.0862 5.0685 C 34.6507 5.2556 35.1163 5.5559 35.4831 5.9693 C 35.8499 6.3839 36.0344 6.9916 36.0344 7.7923 C 36.0344 8.22 35.9213 8.6311 35.6962 9.0242 C 35.4712 9.4186 35.1354 9.7689 34.69 10.0763 C 34.2434 10.3837 33.7004 10.6232 33.0597 10.7972 C 32.4191 10.9711 31.676 11.0569 30.8305 11.0569 C 30.116 11.0569 29.4991 11.0009 28.9775 10.8925 C 28.4559 10.7829 28.0094 10.653 27.6403 10.5041 C 27.2699 10.3563 26.9662 10.2205 26.7281 10.0978 C 26.4899 9.975 26.2994 9.9131 26.1541 9.9131 C 26.0208 9.9131 25.8826 9.9929 25.7372 10.1514 L 25.5396 10.0322 L 26.609 7.7506 L 26.8674 7.89 L 26.8674 7.89 Z" fill="#88abc2"/>
				<path d="M 48.0321 9.583 C 47.9523 9.4901 47.8535 9.4436 47.7344 9.4436 C 47.6677 9.4436 47.5331 9.5306 47.3284 9.7022 C 47.1235 9.8738 46.8329 10.0632 46.4566 10.2693 C 46.0803 10.4755 45.6004 10.6578 45.0193 10.8174 C 44.4382 10.9771 43.7308 11.0569 42.8997 11.0569 C 41.9744 11.0569 41.1288 10.9258 40.3632 10.6613 C 39.5963 10.3968 38.9354 10.0179 38.3804 9.5223 C 37.8243 9.0266 37.3896 8.4392 37.0764 7.7589 C 36.7621 7.0786 36.606 6.3351 36.606 5.5296 C 36.606 4.8565 36.7525 4.2154 37.0454 3.6078 C 37.3384 3.0001 37.7564 2.4628 38.2994 1.9933 C 38.8425 1.5239 39.4938 1.151 40.2536 0.8733 C 41.0133 0.5969 41.8683 0.4575 42.8198 0.4575 C 43.4796 0.4575 44.0678 0.5123 44.5834 0.6196 C 45.0978 0.728 45.5469 0.846 45.9303 0.9722 C 46.3137 1.0997 46.6269 1.2177 46.8723 1.3249 C 47.1163 1.4333 47.2855 1.487 47.3783 1.487 C 47.4832 1.487 47.5498 1.4715 47.576 1.4393 C 47.6022 1.4083 47.6343 1.3666 47.6749 1.3154 L 47.913 1.4679 L 46.684 3.578 L 46.4268 3.4589 C 46.4924 3.3933 46.5257 3.3075 46.5257 3.2015 C 46.5257 3.0966 46.4257 2.9608 46.228 2.7952 C 46.0303 2.6308 45.7588 2.4723 45.4158 2.3198 C 45.0729 2.1673 44.6692 2.035 44.2072 1.923 C 43.7451 1.811 43.2498 1.7539 42.721 1.7539 C 42.1923 1.7539 41.6611 1.8301 41.1265 1.9826 C 40.5906 2.1351 40.1154 2.371 39.6987 2.6904 C 39.2819 3.0097 38.9424 3.4172 38.6781 3.9152 C 38.4137 4.4132 38.2827 5.0078 38.2827 5.6976 C 38.2827 6.2958 38.4173 6.8427 38.6888 7.3407 C 38.9591 7.8387 39.3188 8.2677 39.7689 8.6263 C 40.2178 8.9849 40.7299 9.2637 41.3039 9.4627 C 41.8779 9.6617 42.4697 9.7606 43.0782 9.7606 C 43.5533 9.7606 44.0059 9.6915 44.4346 9.5533 C 44.8633 9.415 45.2431 9.2459 45.5742 9.0481 C 45.9041 8.8503 46.1685 8.6477 46.3673 8.4428 C 46.565 8.2379 46.665 8.0699 46.665 7.9364 C 46.665 7.8185 46.6317 7.7255 46.565 7.6588 L 46.8234 7.5003 L 48.2893 9.4043 L 48.0321 9.583 L 48.0321 9.583 Z" fill="#88abc2"/>
				<path d="M 51.8559 2.8202 C 51.114 3.5303 50.7437 4.5097 50.7437 5.7572 C 50.7437 7.0059 51.114 7.9853 51.8559 8.6954 C 52.5966 9.4055 53.6493 9.7606 55.0116 9.7606 C 56.3739 9.7606 57.4254 9.4055 58.1673 8.6954 C 58.908 7.9853 59.2795 7.0059 59.2795 5.7572 C 59.2795 4.5097 58.908 3.5303 58.1673 2.8202 C 57.4254 2.1101 56.3739 1.7539 55.0116 1.7539 C 53.6493 1.7539 52.5966 2.1101 51.8559 2.8202 L 51.8559 2.8202 ZM 57.3813 0.8042 C 58.1053 1.0354 58.7341 1.3797 59.2676 1.8349 C 59.8011 2.29 60.2155 2.8488 60.5121 3.5089 C 60.8074 4.169 60.9562 4.9291 60.9562 5.787 C 60.9562 6.6461 60.8074 7.4062 60.5121 8.0663 C 60.2155 8.7264 59.8011 9.2816 59.2676 9.7296 C 58.7341 10.1788 58.1053 10.5124 57.3813 10.7304 C 56.6573 10.9485 55.8666 11.0569 55.0116 11.0569 C 54.1554 11.0569 53.3658 10.9485 52.6418 10.7304 C 51.9178 10.5124 51.2891 10.1788 50.7556 9.7296 C 50.2221 9.2816 49.8065 8.7264 49.5112 8.0663 C 49.2146 7.4062 49.067 6.6461 49.067 5.787 C 49.067 4.9291 49.2146 4.169 49.5112 3.5089 C 49.8065 2.8488 50.2221 2.29 50.7556 1.8349 C 51.2891 1.3797 51.9178 1.0354 52.6418 0.8042 C 53.3658 0.5731 54.1554 0.4575 55.0116 0.4575 C 55.8666 0.4575 56.6573 0.5731 57.3813 0.8042 L 57.3813 0.8042 Z" fill="#88abc2"/>
			</g>
			<g>
				<path d="M 0.151 14.3585 C 0.1331 14.337 0.0974 14.3251 0.0426 14.3251 L 0.0426 14.2548 L 2.4016 14.2548 C 2.46 14.2548 2.4993 14.2441 2.5184 14.2203 C 2.5374 14.1965 2.5482 14.1571 2.5482 14.1023 L 2.6196 14.1023 L 2.6196 14.7767 L 2.5482 14.7767 C 2.5482 14.7267 2.5374 14.6897 2.5184 14.6683 C 2.4993 14.6468 2.46 14.6361 2.4016 14.6361 L 0.5594 14.6361 L 0.5594 15.3224 L 1.8562 15.3224 C 1.9146 15.3224 1.9539 15.3117 1.973 15.2902 C 1.992 15.2688 2.0027 15.233 2.0027 15.1818 L 2.073 15.1818 L 2.073 15.8455 L 2.0027 15.8455 C 2.0027 15.7942 1.992 15.7573 1.973 15.7358 C 1.9539 15.7144 1.9146 15.7037 1.8562 15.7037 L 0.5594 15.7037 L 0.5594 16.4662 L 2.4659 16.4662 C 2.5243 16.4662 2.5636 16.4555 2.5839 16.434 C 2.6029 16.4126 2.6136 16.3769 2.6136 16.3256 L 2.684 16.3256 L 2.684 17 L 2.6136 17 C 2.6136 16.9369 2.6029 16.8952 2.5839 16.8773 C 2.5636 16.857 2.5243 16.8475 2.4659 16.8475 L 0.0426 16.8475 L 0.0426 16.7772 C 0.0974 16.7772 0.1331 16.7665 0.151 16.745 C 0.1688 16.7236 0.1784 16.6783 0.1784 16.6116 L 0.1784 14.4907 C 0.1784 14.424 0.1688 14.3799 0.151 14.3585 L 0.151 14.3585 Z" fill="#88abc2"/>
				<path d="M 7.7011 14.3585 C 7.6833 14.337 7.6428 14.3251 7.5809 14.3251 L 7.5809 14.2548 L 8.9968 14.2548 C 9.2266 14.2548 9.4254 14.2882 9.5934 14.3549 C 9.7601 14.4216 9.8982 14.5134 10.0054 14.629 C 10.1126 14.7457 10.1912 14.8816 10.2424 15.0388 C 10.2924 15.1961 10.3186 15.3677 10.3186 15.5512 C 10.3186 15.7323 10.2924 15.9015 10.2424 16.0611 C 10.1912 16.2208 10.1126 16.3578 10.0054 16.4734 C 9.8982 16.5901 9.7601 16.6807 9.5934 16.7474 C 9.4254 16.8141 9.2266 16.8475 8.9968 16.8475 L 7.5809 16.8475 L 7.5809 16.7772 C 7.6428 16.7772 7.6833 16.7665 7.7011 16.745 C 7.7178 16.7236 7.7273 16.6783 7.7273 16.6116 L 7.7273 14.4907 C 7.7273 14.424 7.7178 14.3799 7.7011 14.3585 L 7.7011 14.3585 ZM 8.9384 16.4662 C 9.1194 16.4662 9.273 16.4424 9.3992 16.3935 C 9.5255 16.3459 9.6279 16.2792 9.7077 16.1958 C 9.7863 16.1124 9.8447 16.0158 9.8815 15.9062 C 9.9185 15.7966 9.9375 15.6775 9.9375 15.5512 C 9.9375 15.4249 9.9185 15.3069 9.8815 15.1973 C 9.8447 15.0877 9.7863 14.99 9.7077 14.9066 C 9.6279 14.8232 9.5255 14.7576 9.3992 14.7088 C 9.273 14.6611 9.1194 14.6361 8.9384 14.6361 L 8.1083 14.6361 L 8.1083 16.4662 L 8.9384 16.4662 L 8.9384 16.4662 Z" fill="#88abc2"/>
				<path d="M 17.7496 16.4209 C 17.671 16.5306 17.5686 16.6163 17.4436 16.6807 C 17.3173 16.745 17.178 16.7891 17.0256 16.8129 C 16.872 16.8368 16.7207 16.8475 16.5719 16.8475 C 16.4218 16.8475 16.2706 16.8368 16.1182 16.8129 C 15.9646 16.7891 15.8252 16.745 15.7002 16.6807 C 15.574 16.6163 15.4727 16.5306 15.3942 16.4209 C 15.3156 16.3113 15.2762 16.1755 15.2762 16.0111 L 15.2762 14.4884 C 15.2762 14.4228 15.2679 14.3788 15.2525 14.3573 C 15.2358 14.3359 15.2025 14.3251 15.1524 14.3251 L 15.1524 14.2548 L 15.7812 14.2548 L 15.7812 14.3228 C 15.73 14.3228 15.6967 14.3335 15.6811 14.3537 C 15.6645 14.3752 15.6573 14.4169 15.6573 14.4812 L 15.6573 15.8824 C 15.6573 16.0981 15.7395 16.2494 15.9062 16.3364 C 16.0717 16.4233 16.2933 16.4662 16.5719 16.4662 C 16.8494 16.4662 17.0708 16.4233 17.2375 16.3364 C 17.4031 16.2494 17.4865 16.0981 17.4865 15.8824 L 17.4865 14.4812 C 17.4865 14.4169 17.4781 14.3752 17.4626 14.3537 C 17.446 14.3335 17.4126 14.3228 17.3626 14.3228 L 17.3626 14.2548 L 17.9913 14.2548 L 17.9913 14.3251 C 17.9402 14.3251 17.9068 14.3359 17.8914 14.3573 C 17.8746 14.3788 17.8675 14.4228 17.8675 14.4884 L 17.8675 16.0111 C 17.8675 16.1755 17.8282 16.3113 17.7496 16.4209 L 17.7496 16.4209 Z" fill="#88abc2"/>
				<path d="M 24.9961 15.071 C 25.0032 15.0472 25.0081 15.0317 25.0081 15.0233 L 25.0081 14.9709 C 25.0081 14.9471 24.9818 14.9173 24.9318 14.8804 C 24.8806 14.8434 24.8127 14.8065 24.7294 14.7684 C 24.6448 14.7314 24.5507 14.7004 24.4471 14.6742 C 24.3435 14.6492 24.2387 14.6361 24.134 14.6361 C 23.9648 14.6361 23.8148 14.6611 23.6814 14.7112 C 23.548 14.7612 23.4349 14.8291 23.3408 14.9161 C 23.2468 15.0031 23.1754 15.1032 23.1265 15.2176 C 23.0777 15.3319 23.0538 15.4535 23.0538 15.5821 C 23.0538 15.712 23.0777 15.8324 23.1265 15.942 C 23.1754 16.0528 23.2456 16.1481 23.3385 16.2267 C 23.4301 16.3066 23.5385 16.3697 23.6635 16.415 C 23.7886 16.4615 23.9279 16.4841 24.0804 16.4841 C 24.2328 16.4841 24.3698 16.4686 24.4888 16.4376 C 24.6079 16.4066 24.7079 16.3685 24.79 16.3232 C 24.8723 16.278 24.9354 16.2327 24.9783 16.1874 C 25.0211 16.1421 25.0437 16.1088 25.0437 16.0849 C 25.0437 16.0421 25.0354 16.0027 25.0199 15.967 L 25.0782 15.9324 L 25.4891 16.4722 L 25.4247 16.5198 C 25.3938 16.496 25.3701 16.4817 25.3546 16.4758 C 25.3379 16.4698 25.3248 16.4662 25.3129 16.4662 C 25.2772 16.4662 25.2295 16.4877 25.1688 16.5282 C 25.108 16.5687 25.0295 16.614 24.9318 16.6628 C 24.8342 16.7129 24.7174 16.7557 24.5829 16.7927 C 24.4471 16.8296 24.2864 16.8475 24.0982 16.8475 C 23.8981 16.8475 23.7112 16.8225 23.5374 16.77 C 23.3635 16.7176 23.2122 16.6366 23.0836 16.527 C 22.955 16.4174 22.855 16.2827 22.7823 16.1207 C 22.7085 15.9586 22.6728 15.774 22.6728 15.5655 C 22.6728 15.3581 22.7097 15.1735 22.7847 15.0114 C 22.8597 14.8494 22.9633 14.7136 23.0955 14.6016 C 23.2277 14.4896 23.3825 14.4038 23.5588 14.3442 C 23.735 14.2846 23.9219 14.2548 24.1221 14.2548 C 24.2899 14.2548 24.4293 14.2668 24.5388 14.2894 C 24.6484 14.312 24.7615 14.3478 24.8793 14.3978 C 24.9568 14.43 25.0211 14.4598 25.0723 14.4872 C 25.1223 14.5146 25.1617 14.5277 25.1902 14.5277 C 25.2212 14.5277 25.2521 14.5027 25.2842 14.4526 L 25.3546 14.48 L 25.0663 15.1055 L 24.9961 15.071 L 24.9961 15.071 Z" fill="#88abc2"/>
				<path d="M 30.7087 15.7037 L 31.8531 15.7037 L 31.2614 14.4717 L 30.7087 15.7037 L 30.7087 15.7037 ZM 29.8002 16.7772 C 29.8621 16.7772 29.9037 16.7641 29.9252 16.7355 C 29.9466 16.7081 29.968 16.6723 29.9871 16.6295 L 30.9148 14.4967 C 30.9338 14.449 30.9446 14.4157 30.9446 14.3966 C 30.9446 14.3776 30.9327 14.3597 30.9113 14.343 C 30.8898 14.3275 30.8517 14.318 30.7969 14.3132 L 30.7969 14.2548 L 31.7484 14.2548 L 31.7484 14.3251 C 31.7162 14.3251 31.6852 14.3311 31.6567 14.3406 C 31.6269 14.3502 31.6126 14.3692 31.6126 14.3966 C 31.6126 14.4157 31.6174 14.4359 31.6269 14.455 C 31.6364 14.4753 31.6459 14.4955 31.6543 14.5146 L 32.6582 16.6592 C 32.6689 16.6866 32.6855 16.7129 32.7094 16.7391 C 32.7332 16.7653 32.7761 16.7772 32.8392 16.7772 L 32.8392 16.8475 L 32.0997 16.8475 L 32.0997 16.7772 C 32.1699 16.7772 32.2164 16.7712 32.2402 16.7593 C 32.264 16.7474 32.2759 16.7307 32.2759 16.7069 C 32.2759 16.6795 32.2712 16.6557 32.264 16.6366 C 32.2568 16.6175 32.2485 16.5973 32.2414 16.5782 L 32.0008 16.0849 L 30.5742 16.0849 L 30.3754 16.5306 C 30.3586 16.5663 30.342 16.5997 30.3253 16.6306 C 30.3074 16.6616 30.2991 16.6878 30.2991 16.7069 C 30.2991 16.7307 30.3099 16.7474 30.3337 16.7593 C 30.3575 16.7712 30.3979 16.7772 30.4575 16.7772 L 30.4575 16.8475 L 29.8002 16.8475 L 29.8002 16.7772 L 29.8002 16.7772 Z" fill="#88abc2"/>
				<path d="M 39.6653 14.7004 C 39.6653 14.6504 39.6545 14.6135 39.6356 14.592 C 39.6153 14.5706 39.576 14.5599 39.5176 14.5599 L 38.609 14.5599 L 38.609 16.6092 C 38.609 16.6771 38.6174 16.7224 38.6352 16.7438 C 38.6519 16.7653 38.6924 16.776 38.7554 16.776 L 38.7554 16.8475 L 38.0815 16.8475 L 38.0815 16.776 C 38.1434 16.776 38.1839 16.7653 38.2017 16.7438 C 38.2184 16.7224 38.228 16.6771 38.228 16.6092 L 38.228 14.5599 L 37.3193 14.5599 C 37.2598 14.5599 37.2205 14.5706 37.2015 14.592 C 37.1812 14.6135 37.1717 14.6504 37.1717 14.7004 L 37.1014 14.7004 L 37.1014 14.1023 L 37.1717 14.1023 C 37.1717 14.1571 37.1812 14.1965 37.2015 14.2203 C 37.2205 14.2441 37.2598 14.2548 37.3193 14.2548 L 39.5176 14.2548 C 39.576 14.2548 39.6153 14.2441 39.6356 14.2203 C 39.6545 14.1965 39.6653 14.1571 39.6653 14.1023 L 39.7355 14.1023 L 39.7355 14.7004 L 39.6653 14.7004 L 39.6653 14.7004 Z" fill="#88abc2"/>
				<path d="M 44.4872 16.7772 C 44.5491 16.7772 44.5896 16.7665 44.6075 16.745 C 44.6241 16.7236 44.6337 16.6783 44.6337 16.6116 L 44.6337 14.4907 C 44.6337 14.424 44.6241 14.3799 44.6075 14.3585 C 44.5896 14.337 44.5491 14.3251 44.4872 14.3251 L 44.4872 14.2548 L 45.1612 14.2548 L 45.1612 14.3251 C 45.0981 14.3251 45.0576 14.337 45.041 14.3585 C 45.0231 14.3799 45.0148 14.424 45.0148 14.4907 L 45.0148 16.6116 C 45.0148 16.6783 45.0231 16.7236 45.041 16.745 C 45.0576 16.7665 45.0981 16.7772 45.1612 16.7772 L 45.1612 16.8475 L 44.4872 16.8475 L 44.4872 16.7772 L 44.4872 16.7772 Z" fill="#88abc2"/>
				<path d="M 51.1502 14.7064 C 51.0132 14.7529 50.8978 14.8172 50.8024 14.8994 C 50.7072 14.9828 50.6346 15.0793 50.5834 15.1901 C 50.5309 15.3022 50.506 15.4201 50.506 15.5452 C 50.506 15.6751 50.5309 15.7954 50.5834 15.9062 C 50.6346 16.0182 50.7072 16.1147 50.8024 16.1969 C 50.8978 16.2803 51.0132 16.3459 51.1502 16.3935 C 51.2859 16.4424 51.4396 16.4662 51.611 16.4662 C 51.7814 16.4662 51.9349 16.4424 52.0719 16.3935 C 52.2076 16.3459 52.3232 16.2803 52.4184 16.1969 C 52.5137 16.1147 52.5864 16.0182 52.6387 15.9062 C 52.6899 15.7954 52.7161 15.6751 52.7161 15.5452 C 52.7161 15.4201 52.6899 15.3022 52.6387 15.1901 C 52.5864 15.0793 52.5137 14.9828 52.4184 14.8994 C 52.3232 14.8172 52.2076 14.7529 52.0719 14.7064 C 51.9349 14.6599 51.7814 14.6361 51.611 14.6361 C 51.4396 14.6361 51.2859 14.6599 51.1502 14.7064 L 51.1502 14.7064 ZM 52.2267 14.3585 C 52.4101 14.4276 52.5661 14.5217 52.6959 14.6385 C 52.8257 14.7565 52.9246 14.8947 52.9936 15.0519 C 53.0626 15.2092 53.0972 15.3784 53.0972 15.5595 C 53.0972 15.7406 53.0626 15.911 52.9936 16.0683 C 52.9246 16.2255 52.8257 16.3638 52.6959 16.4805 C 52.5661 16.5985 52.4101 16.689 52.2267 16.7522 C 52.0433 16.8165 51.8384 16.8475 51.611 16.8475 C 51.3824 16.8475 51.1776 16.8165 50.9941 16.7522 C 50.8108 16.689 50.6548 16.5985 50.525 16.4805 C 50.3952 16.3638 50.2963 16.2255 50.2273 16.0683 C 50.1582 15.911 50.1249 15.7406 50.1249 15.5595 C 50.1249 15.3784 50.1582 15.2092 50.2273 15.0519 C 50.2963 14.8947 50.3952 14.7565 50.525 14.6385 C 50.6548 14.5217 50.8108 14.4276 50.9941 14.3585 C 51.1776 14.2894 51.3824 14.2548 51.611 14.2548 C 51.8384 14.2548 52.0433 14.2894 52.2267 14.3585 L 52.2267 14.3585 Z" fill="#88abc2"/>
				<path d="M 57.8965 16.7772 C 57.9584 16.7772 58.0013 16.7665 58.0227 16.745 C 58.0441 16.7236 58.0549 16.6783 58.0549 16.6116 L 58.0549 14.4907 C 58.0549 14.424 58.0441 14.3799 58.0227 14.3585 C 58.0013 14.337 57.9584 14.3251 57.8965 14.3251 L 57.8965 14.2548 L 58.7587 14.2548 L 58.7587 14.3251 C 58.6944 14.3251 58.6527 14.3311 58.6312 14.3406 C 58.6098 14.3502 58.5991 14.3633 58.5991 14.3788 C 58.5991 14.3907 58.6205 14.424 58.6635 14.4788 L 60.265 16.3113 L 60.265 14.4907 C 60.265 14.424 60.2532 14.3799 60.2318 14.3585 C 60.2103 14.337 60.1675 14.3251 60.1055 14.3251 L 60.1055 14.2548 L 60.8057 14.2548 L 60.8057 14.3251 C 60.7426 14.3251 60.6997 14.337 60.6783 14.3585 C 60.6569 14.3799 60.6462 14.424 60.6462 14.4907 L 60.6462 16.6116 C 60.6462 16.6783 60.6569 16.7236 60.6783 16.745 C 60.6997 16.7665 60.7426 16.7772 60.8057 16.7772 L 60.8057 16.8475 L 60.0138 16.8475 L 60.0138 16.7772 C 60.0924 16.7772 60.1389 16.7736 60.1555 16.7653 C 60.171 16.7581 60.1793 16.7438 60.1793 16.7236 C 60.1793 16.7045 60.1722 16.6878 60.1579 16.6735 C 60.1436 16.6604 60.127 16.6414 60.1079 16.6175 L 58.436 14.7147 L 58.436 16.6116 C 58.436 16.6783 58.4467 16.7236 58.4681 16.745 C 58.4896 16.7665 58.5324 16.7772 58.5943 16.7772 L 58.5943 16.8475 L 57.8965 16.8475 L 57.8965 16.7772 L 57.8965 16.7772 Z" fill="#88abc2"/>
			</g>
			<rect x="0" y="12.454" width="61" height="0.3761" fill="#88abc2"/>
		</g>
	</g>
</svg>