<?xml version="1.0" standalone="no"?><!-- Generator: Adobe Fireworks CS6, Export SVG Extension by Aaron Beall (http://fireworks.abeall.com) . Version: 0.6.1  --><!DOCTYPE svg PUBLIC "-//W3C//DTD SVG 1.1//EN" "http://www.w3.org/Graphics/SVG/1.1/DTD/svg11.dtd"><svg id="Untitled-Page%201" viewBox="0 0 100 100" style="background-color:#ffffff00" version="1.1"	xmlns="http://www.w3.org/2000/svg" xmlns:xlink="http://www.w3.org/1999/xlink" xml:space="preserve"	x="0px" y="0px" width="100px" height="100px">	<g id="Layer%201">		<rect x="0" y="0" width="100" height="100" fill="#d0e0eb" rx="5" ry="5"/>		<g>			<path d="M 34.5313 25.7031 C 34.5313 26.2656 34.3281 26.75 33.9531 27.1719 C 33.5625 27.6094 33.0938 27.8125 32.5313 27.8125 C 31.9688 27.8125 31.4844 27.6094 31.0469 27.1719 L 28.0938 24.2031 C 27.75 23.8594 27.5781 23.3906 27.5781 22.7969 C 27.5781 22.2031 27.7656 21.7031 28.1563 21.3125 C 28.5313 20.9375 29 20.7344 29.5625 20.7344 C 30.125 20.7344 30.6094 20.9531 31.0469 21.375 L 34.0156 24.2031 C 34.3594 24.6406 34.5313 25.1406 34.5313 25.7031 L 34.5313 25.7031 ZM 24.6719 42.5781 C 25.0469 42.9688 25.25 43.4688 25.25 44.0625 C 25.25 44.6719 25.0469 45.1719 24.6719 45.5469 C 24.2813 45.9375 23.7813 46.125 23.1875 46.125 L 19.0625 46.125 C 18.4531 46.125 17.9531 45.9375 17.5781 45.5469 C 17.1875 45.1719 17 44.6719 17 44.0625 C 17 43.4688 17.1875 42.9688 17.5781 42.5781 C 17.9531 42.2031 18.4531 42 19.0625 42 L 23.1875 42 C 23.7813 42 24.2813 42.2031 24.6719 42.5781 L 24.6719 42.5781 ZM 82.3594 46.7031 C 82.7813 47.0938 83 47.5938 83 48.1875 C 83 48.7969 82.7813 49.2969 82.3594 49.6719 C 81.9219 50.0625 81.4531 50.25 80.9375 50.25 L 76.8125 50.25 C 76.2031 50.25 75.7031 50.0625 75.3281 49.6719 C 74.9375 49.2969 74.75 48.7969 74.75 48.1875 C 74.75 47.5938 74.9375 47.0938 75.3281 46.7031 C 75.7031 46.3281 76.2031 46.125 76.8125 46.125 L 80.9375 46.125 C 81.4531 46.125 81.9219 46.3281 82.3594 46.7031 L 82.3594 46.7031 ZM 75.3906 25.7031 C 75.3906 26.2656 75.1719 26.75 74.75 27.1719 L 71.9219 30.1406 C 71.4844 30.4844 70.9844 30.6563 70.4219 30.6563 C 69.8594 30.6563 69.375 30.4844 68.9531 30.1406 C 68 29.1094 68 28.125 68.9531 27.1719 L 71.9219 24.2031 C 72.8594 23.2656 73.7969 23.2656 74.75 24.2031 C 75.1719 24.6406 75.3906 25.1406 75.3906 25.7031 L 75.3906 25.7031 ZM 50 19.3125 L 50 15.1875 L 50.125 14.4063 C 50.4688 13.5625 51.1094 13.125 52.0625 13.125 C 52.6563 13.125 53.1563 13.3281 53.5469 13.7031 C 53.9219 14.0938 54.125 14.5938 54.125 15.1875 L 54.125 19.3125 C 54.125 19.9219 53.9219 20.4219 53.5469 20.7969 C 53.1563 21.1875 52.6563 21.375 52.0625 21.375 C 51.4531 21.375 50.9531 21.1875 50.5781 20.7969 C 50.1875 20.4219 50 19.9219 50 19.3125 L 50 19.3125 ZM 66.5 46.125 C 66.5 49.1406 65.7344 51.8906 64.2344 54.375 C 62.7344 56.875 60.7344 58.8438 58.25 60.2969 L 58.25 66.75 L 41.75 66.75 L 41.75 60.2969 C 39.25 58.8438 37.25 56.875 35.75 54.375 C 34.25 51.8906 33.5 49.1406 33.5 46.125 C 33.5 41.5781 35.1094 37.6875 38.3281 34.4688 C 41.5469 31.25 45.4375 29.625 50 29.625 C 54.5469 29.625 58.4375 31.25 61.6563 34.4688 C 64.875 37.6875 66.5 41.5781 66.5 46.125 L 66.5 46.125 ZM 62.375 46.125 C 62.375 42.6875 61.1719 39.7656 58.7656 37.3594 C 56.3594 34.9531 53.4375 33.75 50 33.75 C 46.5625 33.75 43.6406 34.9531 41.2344 37.3594 C 38.8281 39.7656 37.625 42.6875 37.625 46.125 C 37.625 50.8594 39.6875 54.4219 43.8125 56.8281 L 45.875 57.9844 L 45.875 60.2969 L 45.875 62.625 L 54.125 62.625 L 54.125 60.2969 L 54.125 57.9844 L 56.1875 56.8281 C 60.3125 54.4219 62.375 50.8594 62.375 46.125 L 62.375 46.125 ZM 41.75 70.875 L 58.25 70.875 L 58.25 75 L 54 75 L 54.125 75.5156 C 54.125 76.5469 53.7031 77.4063 52.8906 78.0938 C 52.0781 78.7813 51.1094 79.125 50 79.125 C 48.875 79.125 47.9063 78.7813 47.0938 78.0938 C 46.2813 77.4063 45.875 76.5469 45.875 75.5156 L 46 75 L 41.75 75 L 41.75 70.875 L 41.75 70.875 Z" fill="#ffffff"/>		</g>	</g></svg>