<?xml version="1.0" standalone="no"?><!-- Generator: Adobe Fireworks CS6, Export SVG Extension by Aaron Beall (http://fireworks.abeall.com) . Version: 0.6.1  --><!DOCTYPE svg PUBLIC "-//W3C//DTD SVG 1.1//EN" "http://www.w3.org/Graphics/SVG/1.1/DTD/svg11.dtd"><svg id="Untitled-Page%201" viewBox="0 0 260 61" style="background-color:#ffffff00" version="1.1"	xmlns="http://www.w3.org/2000/svg" xmlns:xlink="http://www.w3.org/1999/xlink" xml:space="preserve"	x="0px" y="0px" width="260px" height="61px">	<defs>		<filter id="filter1" x="-100%" y="-100%" width="300%" height="300%">			<!-- Drop Shadow -->			<feOffset result="out" in="SourceGraphic" dx="0" dy="2"/>			<feColorMatrix result="out" in="out" type="matrix" values="0 0 0 1 0  0 0 0 1 0  0 0 0 1 0  0 0 0 1 0"/>			<feGaussianBlur result="out" in="out" stdDeviation="0"/>			<feBlend in="SourceGraphic" in2="out" mode="normal" result="Drop_Shadow1"/>		</filter>	</defs>	<g id="Layer%201">		<g id="synergy%20logo" filter="url(#filter1)">			<g>				<path d="M 5.5827 32.6815 C 7.1332 34.0178 8.8501 35.1098 10.7337 35.9551 C 12.6165 36.8009 14.4662 37.2241 16.2835 37.2241 C 18.3209 37.2241 19.8394 36.8465 20.836 36.0879 C 21.8329 35.3318 22.3315 34.3076 22.3315 33.0159 C 22.3315 32.3485 22.1873 31.7702 21.8997 31.2792 C 21.6107 30.7897 21.1902 30.3554 20.6368 29.9768 C 20.0825 29.599 19.4176 29.242 18.6428 28.9078 C 17.8671 28.5739 17.0146 28.2065 16.0839 27.8056 L 10.4348 25.401 C 9.3266 24.9563 8.252 24.3773 7.2113 23.6643 C 6.1696 22.9528 5.2393 22.1174 4.4199 21.1591 C 3.5995 20.2026 2.946 19.0887 2.4591 17.8198 C 1.9711 16.5506 1.728 15.1144 1.728 13.5113 C 1.728 11.7307 2.1039 10.0491 2.858 8.4682 C 3.6108 6.8876 4.674 5.5069 6.0478 4.3264 C 7.4209 3.1474 9.0493 2.2228 10.9328 1.5547 C 12.8161 0.8865 14.8875 0.5526 17.1475 0.5526 C 19.673 0.5526 22.1656 1.0431 24.6243 2.0222 C 27.0834 3.0022 29.2438 4.427 31.1045 6.297 L 26.1199 12.5094 C 24.7015 11.3968 23.2838 10.5388 21.8664 9.9378 C 20.448 9.3365 18.8753 9.0358 17.1475 9.0358 C 15.4632 9.0358 14.1231 9.3814 13.1267 10.0714 C 12.1296 10.7621 11.6312 11.7307 11.6312 12.9769 C 11.6312 13.6451 11.7971 14.2126 12.1296 14.6801 C 12.4619 15.1476 12.9271 15.5715 13.5251 15.9493 C 14.1231 16.3281 14.8215 16.6841 15.6187 17.0181 C 16.4166 17.3518 17.2806 17.7192 18.2109 18.1201 L 23.7935 20.3914 C 26.4522 21.4601 28.5458 22.9295 30.0746 24.8 C 31.6032 26.6704 32.3676 29.1414 32.3676 32.2142 C 32.3676 34.0406 32.002 35.7656 31.2709 37.3908 C 30.5397 39.017 29.4765 40.4425 28.0805 41.6651 C 26.6851 42.8914 24.9674 43.8705 22.9296 44.6044 C 20.8914 45.3402 18.5868 45.7066 16.0175 45.7066 C 13.1817 45.7066 10.357 45.1831 7.5433 44.1371 C 4.729 43.0911 2.2148 41.5226 0 39.4285 L 5.5827 32.6815 Z" fill="#47708a"/>				<path d="M 36.2888 49.9826 C 36.6879 50.0708 37.0635 50.1164 37.4187 50.1164 C 39.0573 50.1164 40.3202 49.7151 41.2073 48.9134 C 42.093 48.1126 42.7579 47.0647 43.2008 45.7744 L 43.6664 44.0373 L 30.9716 11.7746 L 40.8084 11.7746 L 45.5271 26.0023 C 46.0142 27.5165 46.4579 29.0532 46.8563 30.6108 C 47.2551 32.1706 47.6757 33.7745 48.1194 35.4205 L 48.3851 35.4205 C 48.7393 33.8622 49.1049 32.2923 49.4818 30.7116 C 49.8578 29.131 50.2462 27.5616 50.6446 26.0023 L 54.6328 11.7746 L 64.0041 11.7746 L 52.5725 45.2393 C 51.7746 47.3323 50.9441 49.1683 50.0798 50.7504 C 49.2159 52.3305 48.219 53.644 47.0892 54.692 C 45.9593 55.737 44.6735 56.528 43.2341 57.0631 C 41.7938 57.5973 40.099 57.8648 38.1499 57.8648 C 37.1299 57.8648 36.2658 57.8086 35.5579 57.6981 C 34.8485 57.5856 34.1619 57.4189 33.4975 57.196 L 35.2256 49.7151 C 35.5347 49.8043 35.8899 49.8925 36.2888 49.9826 Z" fill="#47708a"/>				<path d="M 65.7983 11.7746 L 73.7736 11.7746 L 74.4384 15.983 L 74.7044 15.983 C 76.1218 14.6467 77.6724 13.4778 79.3567 12.4757 C 81.0399 11.4738 83.0122 10.9727 85.2717 10.9727 C 88.8611 10.9727 91.4634 12.1534 93.0812 14.5134 C 94.6984 16.8739 95.5069 20.1473 95.5069 24.3325 L 95.5069 44.9049 L 85.7368 44.9049 L 85.7368 25.6014 C 85.7368 23.1968 85.4152 21.5498 84.7732 20.6582 C 84.1306 19.7681 83.1007 19.3224 81.683 19.3224 C 80.4416 19.3224 79.3784 19.6013 78.4927 20.1577 C 77.6058 20.7149 76.6316 21.505 75.5684 22.5287 L 75.5684 44.9049 L 65.7983 44.9049 L 65.7983 11.7746 Z" fill="#47708a"/>				<path d="M 97.8995 28.3402 C 97.8995 25.6683 98.3412 23.2531 99.2281 21.0927 C 100.1134 18.9334 101.2781 17.1078 102.717 15.6156 C 104.1575 14.1237 105.8089 12.9769 107.6696 12.1754 C 109.5302 11.3737 111.4576 10.9727 113.4516 10.9727 C 115.7988 10.9727 117.8491 11.3737 119.5992 12.1754 C 121.3499 12.9769 122.8122 14.0903 123.9861 15.515 C 125.16 16.941 126.0343 18.6212 126.6111 20.5581 C 127.1865 22.4957 127.4749 24.5993 127.4749 26.8706 C 127.4749 27.7617 127.4315 28.5739 127.3433 29.3087 C 127.2531 30.0435 127.1643 30.6108 127.0765 31.0117 L 107.3377 31.0117 C 107.7795 33.5496 108.7657 35.3871 110.2946 36.5232 C 111.8234 37.6584 113.6949 38.2264 115.9108 38.2264 C 118.2585 38.2264 120.6289 37.4907 123.0215 36.021 L 126.2793 41.9666 C 124.5957 43.1251 122.7239 44.0373 120.6632 44.7062 C 118.6029 45.3731 116.576 45.7066 114.582 45.7066 C 112.2328 45.7066 110.0385 45.3169 108.0013 44.5385 C 105.9623 43.76 104.1898 42.6239 102.6844 41.132 C 101.1773 39.6398 100.0034 37.8256 99.1616 35.6876 C 98.3195 33.5496 97.8995 31.1018 97.8995 28.3402 ZM 119.1671 24.9335 C 119.1671 23.0192 118.7446 21.4601 117.9045 20.2578 C 117.063 19.0555 115.6458 18.454 113.6517 18.454 C 112.0993 18.454 110.7363 18.978 109.5627 20.024 C 108.3889 21.0709 107.6244 22.7073 107.2711 24.9335 L 119.1671 24.9335 Z" fill="#47708a"/>				<path d="M 129.6678 11.7746 L 137.6443 11.7746 L 138.3084 17.5857 L 138.5746 17.5857 C 139.7707 15.3146 141.2103 13.6451 142.8944 12.576 C 144.578 11.5073 146.2612 10.9727 147.9463 10.9727 C 148.8766 10.9727 149.641 11.0294 150.2385 11.1399 C 150.8371 11.2519 151.3787 11.4186 151.8667 11.6411 L 150.2719 20.1243 C 149.6506 19.9467 149.0758 19.8129 148.5438 19.7232 C 148.0118 19.6345 147.3907 19.5897 146.6832 19.5897 C 145.4418 19.5897 144.1454 20.0354 142.795 20.9255 C 141.4427 21.8171 140.3243 23.397 139.4379 25.6683 L 139.4379 44.9049 L 129.6678 44.9049 L 129.6678 11.7746 Z" fill="#47708a"/>				<path d="M 150.7373 50.5836 C 150.7373 47.911 152.309 45.6843 155.4554 43.9035 L 155.4554 43.6369 C 154.569 43.0592 153.8383 42.3234 153.262 41.4315 C 152.6862 40.5419 152.3983 39.4057 152.3983 38.0253 C 152.3983 36.8237 152.7527 35.6769 153.4621 34.5859 C 154.1696 33.4953 155.0571 32.571 156.1204 31.8138 L 156.1204 31.5463 C 154.9678 30.7446 153.9372 29.599 153.0295 28.1064 C 152.1209 26.6147 151.6675 24.8896 151.6675 22.9295 C 151.6675 20.9255 152.0432 19.1784 152.7971 17.6863 C 153.5504 16.1944 154.5584 14.9475 155.8215 13.9453 C 157.084 12.9432 158.5348 12.1982 160.1745 11.7075 C 161.8133 11.2184 163.5197 10.9727 165.292 10.9727 C 167.2409 10.9727 168.9478 11.24 170.4095 11.7746 L 182.4395 11.7746 L 182.4395 18.922 L 177.1889 18.922 C 177.499 19.412 177.7542 20.0354 177.9534 20.792 C 178.1535 21.5498 178.2523 22.3733 178.2523 23.2635 C 178.2523 25.1788 177.9206 26.8372 177.2555 28.2401 C 176.5909 29.6424 175.6707 30.8013 174.4978 31.713 C 173.3234 32.6262 171.9494 33.3058 170.3762 33.7507 C 168.8035 34.1966 167.1088 34.4186 165.292 34.4186 C 164.0067 34.4186 162.6771 34.1966 161.305 33.7507 C 160.8613 34.1075 160.5502 34.4627 160.3737 34.82 C 160.1962 35.1767 160.108 35.6444 160.108 36.2222 C 160.108 37.0685 160.4736 37.6918 161.2047 38.0922 C 161.9358 38.4925 163.2322 38.6937 165.0928 38.6937 L 170.4095 38.6937 C 174.4862 38.6937 177.5979 39.3514 179.7479 40.6647 C 181.897 41.9783 182.9715 44.1274 182.9715 47.1103 C 182.9715 48.8465 182.5399 50.4392 181.6751 51.8855 C 180.8118 53.3329 179.582 54.5795 177.9866 55.6265 C 176.3917 56.6725 174.4645 57.4965 172.2046 58.0985 C 169.9446 58.6995 167.3962 59 164.5609 59 C 162.611 59 160.8063 58.8333 159.1439 58.4988 C 157.4829 58.1653 156.0206 57.6632 154.7576 56.9962 C 153.4944 56.3283 152.5082 55.4597 151.7997 54.3905 C 151.0912 53.3222 150.7373 52.0533 150.7373 50.5836 ZM 158.7788 49.0471 C 158.7788 50.2928 159.4434 51.2399 160.773 51.8855 C 162.1017 52.5312 163.8741 52.854 166.0897 52.854 C 168.3048 52.854 170.1211 52.4643 171.54 51.6859 C 172.9574 50.9065 173.6669 49.9371 173.6669 48.7796 C 173.6669 47.7559 173.2347 47.0647 172.3704 46.709 C 171.5067 46.3522 170.2537 46.1758 168.6158 46.1758 L 165.2255 46.1758 C 164.0732 46.1758 163.1429 46.1409 162.4345 46.074 C 161.725 46.0081 161.1049 45.9072 160.5729 45.7744 C 159.3768 46.8418 158.7788 47.9333 158.7788 49.0471 ZM 165.292 28.4738 C 166.5768 28.4738 167.6523 28.0177 168.5156 27.1045 C 169.3794 26.192 169.812 24.8 169.812 22.9295 C 169.812 21.1928 169.3794 19.8681 168.5156 18.955 C 167.6523 18.043 166.5768 17.5857 165.292 17.5857 C 164.0067 17.5857 162.9332 18.0314 162.0685 18.922 C 161.2047 19.8129 160.773 21.149 160.773 22.9295 C 160.773 24.8 161.2047 26.192 162.0685 27.1045 C 162.9332 28.0177 164.0067 28.4738 165.292 28.4738 Z" fill="#47708a"/>				<path d="M 188.8871 49.9826 C 189.2855 50.0708 189.6612 50.1164 190.0167 50.1164 C 191.6554 50.1164 192.9186 49.7151 193.8054 48.9134 C 194.6914 48.1126 195.356 47.0647 195.7996 45.7744 L 196.2646 44.0373 L 183.57 11.7746 L 193.4061 11.7746 L 198.1252 26.0023 C 198.6119 27.5165 199.0555 29.0532 199.4549 30.6108 C 199.8533 32.1706 200.2743 33.7745 200.718 35.4205 L 200.9828 35.4205 C 201.3372 33.8622 201.7033 32.2923 202.0799 30.7116 C 202.4561 29.131 202.8444 27.5616 203.2427 26.0023 L 207.2307 11.7746 L 216.6024 11.7746 L 205.1703 45.2393 C 204.3732 47.3323 203.5422 49.1683 202.6785 50.7504 C 201.8142 52.3305 200.8168 53.644 199.6873 54.692 C 198.5569 55.737 197.2716 56.528 195.8329 57.0631 C 194.3924 57.5973 192.6976 57.8648 190.7477 57.8648 C 189.7282 57.8648 188.8644 57.8086 188.156 57.6981 C 187.4465 57.5856 186.7603 57.4189 186.0952 57.196 L 187.8232 49.7151 C 188.1333 49.8043 188.4887 49.8925 188.8871 49.9826 Z" fill="#47708a"/>			</g>			<g>				<path d="M 220.8532 0.4004 L 225.7388 0.4004 L 225.7388 22.1763 L 220.8532 22.1763 L 220.8532 0.4004 Z" fill="#47708a"/>				<path d="M 232.8495 4.5421 L 226.902 4.5421 L 226.902 0.4004 L 243.7167 0.4004 L 243.7167 4.5421 L 237.7682 4.5421 L 237.7682 22.1763 L 232.8495 22.1763 L 232.8495 4.5421 Z" fill="#47708a"/>				<path d="M 242.9191 11.4222 C 242.9191 9.6184 243.1968 8.0102 243.75 6.5961 C 244.3036 5.1822 245.0517 3.9857 245.9931 3.0056 C 246.934 2.0261 248.0313 1.2806 249.2832 0.7678 C 250.5347 0.2559 251.8582 0 253.2543 0 C 254.6057 0 255.8297 0.2835 256.926 0.8516 C 258.0231 1.4192 258.9361 2.0818 259.6682 2.8384 L 256.9766 5.878 C 256.4219 5.3661 255.863 4.9653 255.2978 4.6757 C 254.7335 4.3863 254.0737 4.2414 253.3204 4.2414 C 252.5675 4.2414 251.8635 4.403 251.2109 4.7256 C 250.5565 5.0486 249.9864 5.5106 249.4998 6.1116 C 249.0112 6.7129 248.6288 7.4477 248.3529 8.316 C 248.0756 9.1844 247.9367 10.1642 247.9367 11.255 C 247.9367 13.5043 248.4137 15.2458 249.3662 16.4818 C 250.3182 17.7175 251.5929 18.3353 253.1877 18.3353 C 254.0737 18.3353 254.8492 18.1574 255.5143 17.8011 C 256.1789 17.4451 256.7764 16.9776 257.3084 16.3984 L 260 19.3708 C 259.0914 20.4394 258.0564 21.2413 256.8936 21.7755 C 255.7308 22.3098 254.4721 22.5771 253.1217 22.5771 C 251.7255 22.5771 250.4064 22.3374 249.166 21.859 C 247.9256 21.3804 246.8405 20.6732 245.9102 19.7383 C 244.9798 18.8028 244.2487 17.64 243.7167 16.2479 C 243.1848 14.8568 242.9191 13.2478 242.9191 11.4222 Z" fill="#47708a"/>			</g>		</g>	</g></svg>