<?xml version="1.0" standalone="no"?><!-- Generator: Adobe Fireworks CS6, Export SVG Extension by Aaron Beall (http://fireworks.abeall.com) . Version: 0.6.1  --><!DOCTYPE svg PUBLIC "-//W3C//DTD SVG 1.1//EN" "http://www.w3.org/Graphics/SVG/1.1/DTD/svg11.dtd"><svg id="Untitled-Page%201" viewBox="0 0 100 100" style="background-color:#ffffff00" version="1.1"	xmlns="http://www.w3.org/2000/svg" xmlns:xlink="http://www.w3.org/1999/xlink" xml:space="preserve"	x="0px" y="0px" width="100px" height="100px">	<g id="Layer%201">		<rect x="0" y="0" width="100" height="100" fill="#d0e0eb" rx="5" ry="5"/>		<g>			<path d="M 31.4775 34.8281 C 31.4775 35.9375 31.5869 36.9219 31.8056 37.7969 C 32.0244 38.6719 32.3525 39.4219 32.8056 40.0469 C 33.2588 40.6719 33.8369 41.1563 34.5556 41.5 C 35.2588 41.8438 36.1025 42 37.1025 42 C 38.3213 42 39.3681 41.7969 40.2431 41.3594 C 41.1181 40.9375 41.9306 40.3594 42.6494 39.625 L 42.79 39.625 L 43.2275 42 L 48.2588 42 L 48.2588 24 L 42.0713 24 L 42.0713 35.625 C 41.665 36.125 41.2744 36.4844 40.8994 36.6875 C 40.5244 36.9063 40.04 37 39.4775 37 C 38.8525 37 38.3838 36.8125 38.1025 36.4375 C 37.8213 36.0625 37.6806 35.2969 37.6806 34.1563 L 37.6806 24 L 31.4775 24 L 31.4775 34.8281 L 31.4775 34.8281 Z" fill="#ffffff"/>			<path d="M 57.5225 40.2813 C 58.71 41.4375 60.0538 42 61.5538 42 C 62.5069 42 63.4288 41.7969 64.335 41.3906 C 65.2413 40.9844 66.0381 40.375 66.7413 39.5781 C 67.4288 38.7969 67.9913 37.8281 68.4131 36.6719 C 68.8194 35.5313 69.0381 34.2188 69.0381 32.7188 C 69.0381 31.4063 68.8663 30.2031 68.5538 29.125 C 68.2256 28.0469 67.7569 27.125 67.1475 26.375 C 66.5381 25.625 65.8038 25.0313 64.9444 24.625 C 64.0694 24.2188 63.1163 24 62.0538 24 C 61.1475 24 60.2725 24.1875 59.4288 24.5625 C 58.585 24.9375 57.835 25.4063 57.1631 26 L 57.0225 26 L 56.585 24 L 51.5538 24 L 51.5538 48 L 57.7413 48 L 57.7413 43.0156 L 57.5225 40.2813 L 57.5225 40.2813 ZM 57.7413 30 C 58.1475 29.2656 58.5381 28.75 58.9131 28.4531 C 59.2881 28.1563 59.71 28 60.1944 28 C 61.0225 28 61.6475 28.375 62.0694 29.1094 C 62.4913 29.8594 62.71 31.0625 62.71 32.75 C 62.71 34.7188 62.4444 36.0938 61.9131 36.8594 C 61.3819 37.625 60.7569 38 60.0381 38 C 59.6319 38 59.2256 37.8906 58.8506 37.6406 C 58.46 37.4063 58.085 36.9531 57.7413 36.2813 L 57.7413 30 L 57.7413 30 Z" fill="#ffffff"/>			<path d="M 17.2138 74 L 23.4013 74 L 23.4013 62.1563 C 23.87 61.7969 24.3075 61.5156 24.6981 61.3125 C 25.0731 61.1094 25.5575 61 26.1356 61 C 26.7606 61 27.2138 61.2031 27.495 61.5781 C 27.7763 61.9531 27.9325 62.7188 27.9325 63.8438 L 27.9325 74 L 34.1356 74 L 34.1356 63.1719 C 34.1356 61 33.6825 59.2656 32.7919 57.9531 C 31.9013 56.6563 30.4794 56 28.5106 56 C 27.2919 56 26.2138 56.2188 25.2919 56.6406 C 24.3544 57.0781 23.5419 57.5781 22.8231 58.1563 L 22.6825 58.1563 L 22.245 56 L 17.2138 56 L 17.2138 74 L 17.2138 74 Z" fill="#ffffff"/>			<path d="M 36.915 68.8125 C 37.3838 69.9375 38.04 70.8906 38.8681 71.6563 C 39.6963 72.4219 40.6806 73 41.8056 73.4063 C 42.9306 73.8125 44.1494 74 45.4775 74 C 46.4775 74 47.5869 73.8594 48.7744 73.5625 C 49.9619 73.2656 51.04 72.8125 52.0244 72.2188 L 50.0088 68.9219 C 49.3525 69.2969 48.7431 69.5625 48.1494 69.7344 C 47.5556 69.9219 46.9619 70 46.3369 70 C 45.3369 70 44.4619 69.7969 43.7119 69.3594 C 42.9619 68.9375 42.4463 68.1563 42.165 67 L 52.4306 67 C 52.4619 66.7969 52.5244 66.4844 52.5869 66.0469 C 52.6494 65.625 52.6806 65.1406 52.6806 64.5938 C 52.6806 63.4063 52.5088 62.2969 52.1963 61.25 C 51.8681 60.2188 51.3838 59.2969 50.7275 58.5156 C 50.0713 57.7344 49.2588 57.125 48.2744 56.6719 C 47.29 56.2344 46.1494 56 44.8369 56 C 43.7275 56 42.665 56.2188 41.6338 56.625 C 40.6025 57.0313 39.6806 57.625 38.8681 58.4063 C 38.0556 59.1875 37.415 60.1406 36.9306 61.25 C 36.4306 62.3594 36.1963 63.6094 36.1963 65 C 36.1963 66.4219 36.4306 67.6875 36.915 68.8125 L 36.915 68.8125 ZM 42.1025 63 C 42.29 61.9063 42.6338 61.125 43.1494 60.6719 C 43.665 60.2344 44.2744 60 44.9775 60 C 45.915 60 46.5556 60.2969 46.8994 60.875 C 47.2431 61.4531 47.4306 62.1563 47.4306 63 L 42.1025 63 L 42.1025 63 Z" fill="#ffffff"/>			<path d="M 53.46 74 L 59.8663 74 L 60.8819 71.4844 C 61.0694 70.9531 61.2725 70.4375 61.4913 69.9219 C 61.71 69.4063 61.9131 68.8906 62.1006 68.3906 L 62.2413 68.3906 C 62.5069 68.8906 62.7725 69.4063 63.0381 69.9375 C 63.2881 70.4688 63.5538 70.9844 63.835 71.4844 L 65.2725 74 L 71.8975 74 L 66.4913 65.3594 L 71.6006 56 L 65.1944 56 L 64.335 58.5156 C 64.1631 59.0156 63.9756 59.5313 63.7881 60.0625 C 63.6006 60.5938 63.4131 61.1094 63.2569 61.6094 L 63.1163 61.6094 C 62.8663 61.1094 62.6319 60.5938 62.3975 60.0625 C 62.1475 59.5313 61.9131 59.0156 61.6788 58.5156 L 60.3819 56 L 53.7569 56 L 58.8663 64.6406 L 53.46 74 L 53.46 74 Z" fill="#ffffff"/>			<path d="M 73.755 66.4375 C 73.755 67.5781 73.88 68.6094 74.13 69.5313 C 74.38 70.4688 74.7863 71.2656 75.3175 71.9219 C 75.8488 72.5938 76.5363 73.1094 77.3644 73.4688 C 78.1925 73.8281 79.1925 74 80.38 74 C 81.38 74 82.2238 73.9531 82.8956 73.8281 C 83.5675 73.7031 84.1456 73.5938 84.63 73.4688 L 83.6925 69.7031 C 83.4738 69.7813 83.2238 69.8438 82.9425 69.9063 C 82.6613 69.9688 82.3956 70 82.1144 70 C 81.5363 70 81.0363 69.7969 80.5988 69.375 C 80.1613 68.9531 79.9581 68.1719 79.9581 67.0156 L 79.9581 60 L 84.0519 60 L 84.0519 56 L 79.9581 56 L 79.9581 51.3125 L 74.8331 51.3125 L 74.1144 56 L 71.38 56.1719 L 71.38 60 L 73.755 60 L 73.755 66.4375 L 73.755 66.4375 Z" fill="#ffffff"/>		</g>	</g></svg>